<?xml version="1.0" encoding="UTF-8" standalone="no"?>
<svg
   xmlns:dc="http://purl.org/dc/elements/1.1/"
   xmlns:cc="http://creativecommons.org/ns#"
   xmlns:rdf="http://www.w3.org/1999/02/22-rdf-syntax-ns#"
   xmlns:svg="http://www.w3.org/2000/svg"
   xmlns="http://www.w3.org/2000/svg"
   viewBox="0 0 21.333332 21.333332"
   height="21.333332"
   width="21.333332"
   xml:space="preserve"
   id="svg2"
   version="1.1"><metadata
     id="metadata8"><rdf:RDF><cc:Work
         rdf:about=""><dc:format>image/svg+xml</dc:format><dc:type
           rdf:resource="http://purl.org/dc/dcmitype/StillImage" /></cc:Work></rdf:RDF></metadata><defs
     id="defs6"><clipPath
       id="clipPath18"
       clipPathUnits="userSpaceOnUse"><path
         id="path16"
         d="M 0,0 H 16 V 16 H 0 Z" /></clipPath></defs><g
     transform="matrix(1.3333333,0,0,-1.3333333,0,21.333333)"
     id="g10"><g
       id="g12"><g
         clip-path="url(#clipPath18)"
         id="g14"><g
           transform="translate(4.022,5.7807)"
           id="g20"><path
             id="path22"
             style="fill:#fc0204;fill-opacity:1;fill-rule:nonzero;stroke:none"
             d="M 0,0 C -0.005,-0.002 -0.011,-0.003 -0.017,-0.002 L -0.755,0.109 C -0.771,0.111 -0.783,0.124 -0.784,0.14 l -0.047,0.484 h -0.263 c -0.019,0 -0.034,0.016 -0.034,0.035 0,0.019 0.015,0.034 0.034,0.034 H -0.8 c 0.018,0 0.033,-0.014 0.035,-0.032 L -0.718,0.173 -0.007,0.066 C 0.012,0.063 0.025,0.046 0.022,0.027 0.02,0.014 0.011,0.004 0,0" /></g><g
           transform="translate(3.3183,4.6576)"
           id="g24"><path
             id="path26"
             style="fill:#fc0204;fill-opacity:1;fill-rule:nonzero;stroke:none"
             d="m 0,0 c -0.002,-0.001 -0.004,-0.001 -0.007,-0.002 l -0.138,-0.023 c -0.018,-0.003 -0.036,0.009 -0.039,0.028 -0.004,0.019 0.009,0.037 0.028,0.04 l 0.115,0.019 0.11,0.55 c 0.003,0.014 0.014,0.025 0.028,0.027 l 0.57,0.097 C 0.686,0.74 0.704,0.727 0.707,0.708 0.71,0.69 0.698,0.672 0.679,0.669 L 0.132,0.575 0.021,0.025 C 0.019,0.014 0.011,0.004 0,0" /></g><g
           transform="translate(3.9726,3.8581)"
           id="g28"><path
             id="path30"
             style="fill:#fc0204;fill-opacity:1;fill-rule:nonzero;stroke:none"
             d="m 0,0 c -0.014,-0.007 -0.031,-0.004 -0.042,0.008 -0.012,0.014 -0.011,0.036 0.003,0.049 l 0.088,0.076 -0.192,0.526 c -0.005,0.014 -0.001,0.029 0.01,0.038 L 0.303,1.078 C 0.317,1.09 0.339,1.089 0.351,1.074 0.364,1.06 0.362,1.038 0.348,1.026 L -0.07,0.661 0.122,0.134 C 0.127,0.121 0.123,0.106 0.112,0.096 L 0.007,0.005 C 0.005,0.003 0.002,0.001 0,0" /></g><g
           transform="translate(5.0103,6.1574)"
           id="g32"><path
             id="path34"
             style="fill:#fc0204;fill-opacity:1;fill-rule:nonzero;stroke:none"
             d="m 0,0 c 0.005,0.002 0.01,0.005 0.014,0.01 l 0.477,0.574 c 0.01,0.012 0.011,0.03 0.002,0.042 L 0.205,1.019 0.401,1.194 C 0.415,1.207 0.416,1.228 0.404,1.243 0.391,1.257 0.369,1.258 0.355,1.245 L 0.136,1.049 C 0.122,1.037 0.12,1.017 0.131,1.003 L 0.421,0.607 -0.039,0.054 C -0.051,0.04 -0.049,0.018 -0.034,0.006 -0.024,-0.003 -0.011,-0.004 0,0" /></g><g
           transform="translate(6.3269,4.7555)"
           id="g36"><path
             id="path38"
             style="fill:#fc0204;fill-opacity:1;fill-rule:nonzero;stroke:none"
             d="m 0,0 c 0.015,0.004 0.026,0.018 0.026,0.034 0,0.019 -0.016,0.034 -0.035,0.034 L -0.125,0.066 -0.332,0.587 C -0.337,0.601 -0.35,0.609 -0.364,0.609 L -0.943,0.603 C -0.962,0.602 -0.977,0.587 -0.977,0.568 c 0,-0.019 0.016,-0.034 0.035,-0.034 L -0.387,0.54 -0.18,0.019 c 0.005,-0.013 0.018,-0.022 0.032,-0.022 l 0.14,0.002 c 0.003,0 0.005,0 0.008,0.001" /></g><g
           transform="translate(4.0513,6.5954)"
           id="g40"><path
             id="path42"
             style="fill:#fc0204;fill-opacity:1;fill-rule:nonzero;stroke:none"
             d="M 0,0 C -0.008,-0.003 -0.017,-0.003 -0.025,0 L -0.328,0.12 C -0.342,0.125 -0.351,0.138 -0.35,0.152 l 0.004,0.237 c 0,0.019 0.016,0.034 0.035,0.034 0.019,0 0.034,-0.016 0.034,-0.035 L -0.281,0.175 0,0.064 C 0.018,0.057 0.027,0.037 0.02,0.02 0.016,0.01 0.009,0.003 0,0" /></g><g
           transform="translate(4.4462,6.7459)"
           id="g44"><path
             id="path46"
             style="fill:#fc0204;fill-opacity:1;fill-rule:nonzero;stroke:none"
             d="M 0,0 C 0.008,0.003 0.014,0.009 0.018,0.017 L 0.166,0.308 C 0.172,0.321 0.17,0.336 0.16,0.347 L -0.001,0.521 C -0.014,0.535 -0.036,0.535 -0.05,0.523 -0.064,0.51 -0.064,0.488 -0.051,0.474 L 0.093,0.318 -0.043,0.048 C -0.052,0.031 -0.045,0.01 -0.028,0.001 -0.019,-0.003 -0.009,-0.003 0,0" /></g><g
           transform="translate(4.6939,6.6224)"
           id="g48"><path
             id="path50"
             style="fill:#fc0204;fill-opacity:1;fill-rule:nonzero;stroke:none"
             d="m 0,0 c 0.078,-0.206 -0.025,-0.436 -0.231,-0.515 -0.205,-0.078 -0.436,0.025 -0.514,0.231 -0.079,0.206 0.025,0.436 0.23,0.515 C -0.309,0.309 -0.078,0.206 0,0" /></g><g
           transform="translate(5.3048,5.0195)"
           id="g52"><path
             id="path54"
             style="fill:#fc0204;fill-opacity:1;fill-rule:nonzero;stroke:none"
             d="m 0,0 c -0.081,-0.117 -0.192,-0.208 -0.328,-0.26 -0.136,-0.051 -0.279,-0.057 -0.417,-0.024 0,0 -0.308,0.808 0.064,0.95 C -0.308,0.808 0,0 0,0" /></g><g
           transform="translate(5.3871,5.9087)"
           id="g56"><path
             id="path58"
             style="fill:#fc0204;fill-opacity:1;fill-rule:nonzero;stroke:none"
             d="m 0,0 c 0.104,-0.274 0.089,-0.559 -0.02,-0.782 -0.018,-0.038 -0.039,-0.073 -0.062,-0.107 -0.308,0.016 -0.545,0.31 -0.545,0.31 0,0 0.014,-0.379 -0.2,-0.594 -0.04,0.009 -0.08,0.022 -0.118,0.038 -0.23,0.094 -0.431,0.297 -0.536,0.571 -0.182,0.478 0.037,0.899 0.446,1.054 C -0.626,0.646 -0.182,0.479 0,0" /></g><g
           transform="translate(5.2032,5.8241)"
           id="g60"><path
             id="path62"
             style="fill:#fc0204;fill-opacity:1;fill-rule:nonzero;stroke:none"
             d="m 0,0 c 0.116,-0.305 -0.037,-0.646 -0.341,-0.762 -0.305,-0.116 -0.646,0.037 -0.762,0.342 -0.116,0.304 0.037,0.645 0.341,0.761 C -0.457,0.457 -0.116,0.305 0,0" /></g><g
           transform="translate(4.5752,6.005)"
           id="g64"><path
             id="path66"
             style="fill:#ffffff;fill-opacity:1;fill-rule:nonzero;stroke:none"
             d="M 0,0 0.164,-0.509 0.09,-0.538 -0.127,-0.048 Z" /></g><g
           transform="translate(4.8228,5.3149)"
           id="g68"><path
             id="path70"
             style="fill:#ffffff;fill-opacity:1;fill-rule:nonzero;stroke:none"
             d="m 0,0 -0.1,-0.038 -0.038,0.1 0.1,0.038 z" /></g><g
           transform="translate(6.9544,3.7147)"
           id="g72"><path
             id="path74"
             style="fill:#fc0204;fill-opacity:1;fill-rule:nonzero;stroke:none"
             d="m 0,0 c -0.004,-0.002 -0.009,-0.004 -0.015,-0.004 l -0.639,0.012 c -0.014,0 -0.026,0.01 -0.029,0.023 L -0.776,0.437 -1,0.408 c -0.016,-0.002 -0.031,0.009 -0.033,0.026 -0.002,0.016 0.009,0.031 0.026,0.033 l 0.25,0.032 c 0.015,0.002 0.029,-0.008 0.032,-0.022 L -0.63,0.067 -0.013,0.056 C 0.003,0.055 0.016,0.042 0.016,0.025 0.015,0.014 0.009,0.005 0,0" /></g><g
           transform="translate(6.4819,2.6811)"
           id="g76"><path
             id="path78"
             style="fill:#fc0204;fill-opacity:1;fill-rule:nonzero;stroke:none"
             d="M 0,0 C -0.002,-0.001 -0.003,-0.002 -0.005,-0.002 L -0.12,-0.037 c -0.016,-0.005 -0.032,0.003 -0.037,0.019 -0.005,0.016 0.004,0.032 0.019,0.037 l 0.096,0.029 0.032,0.48 c 0.001,0.012 0.009,0.023 0.021,0.026 L 0.485,0.701 C 0.5,0.706 0.517,0.697 0.522,0.681 0.526,0.666 0.518,0.649 0.502,0.644 L 0.047,0.504 0.015,0.024 C 0.015,0.014 0.009,0.005 0,0" /></g><g
           transform="translate(7.1277,2.0748)"
           id="g80"><path
             id="path82"
             style="fill:#fc0204;fill-opacity:1;fill-rule:nonzero;stroke:none"
             d="M 0,0 C -0.011,-0.008 -0.026,-0.007 -0.037,0.002 -0.049,0.013 -0.05,0.032 -0.039,0.044 L 0.027,0.118 -0.196,0.544 C -0.201,0.555 -0.2,0.569 -0.191,0.578 L 0.137,0.95 C 0.147,0.962 0.166,0.963 0.178,0.953 0.191,0.942 0.192,0.923 0.181,0.911 L -0.134,0.554 0.089,0.128 C 0.094,0.117 0.093,0.104 0.085,0.094 L 0.005,0.005 C 0.004,0.003 0.002,0.001 0,0" /></g><g
           transform="translate(7.7523,4.1457)"
           id="g84"><path
             id="path86"
             style="fill:#fc0204;fill-opacity:1;fill-rule:nonzero;stroke:none"
             d="M 0,0 C 0.004,0.002 0.008,0.006 0.011,0.01 L 0.352,0.551 C 0.359,0.563 0.358,0.578 0.349,0.588 L 0.06,0.889 0.207,1.06 C 0.218,1.072 0.216,1.091 0.204,1.102 0.191,1.112 0.173,1.111 0.162,1.098 L -0.002,0.907 c -0.01,-0.012 -0.01,-0.029 0.001,-0.04 L 0.29,0.563 -0.039,0.042 C -0.048,0.028 -0.044,0.01 -0.03,0.001 -0.02,-0.005 -0.009,-0.005 0,0" /></g><g
           transform="translate(9.0287,3.1014)"
           id="g88"><path
             id="path90"
             style="fill:#fc0204;fill-opacity:1;fill-rule:nonzero;stroke:none"
             d="M 0,0 C 0.012,0.005 0.02,0.018 0.018,0.032 0.016,0.048 0.001,0.059 -0.015,0.057 l -0.099,-0.015 -0.234,0.42 c -0.006,0.011 -0.018,0.017 -0.03,0.015 L -0.869,0.407 C -0.885,0.404 -0.897,0.389 -0.894,0.373 -0.892,0.357 -0.877,0.346 -0.861,0.348 l 0.471,0.068 0.234,-0.42 c 0.006,-0.011 0.018,-0.017 0.031,-0.015 l 0.118,0.017 C -0.004,-0.001 -0.002,-0.001 0,0" /></g><g
           transform="translate(6.888,4.4106)"
           id="g92"><path
             id="path94"
             style="fill:#fc0204;fill-opacity:1;fill-rule:nonzero;stroke:none"
             d="m 0,0 c -0.006,-0.003 -0.014,-0.005 -0.021,-0.003 l -0.272,0.068 c -0.012,0.003 -0.02,0.013 -0.022,0.025 l -0.023,0.202 c -0.001,0.016 0.01,0.031 0.026,0.033 0.017,0.002 0.031,-0.01 0.033,-0.026 L -0.258,0.117 -0.007,0.055 C 0.009,0.051 0.019,0.035 0.015,0.019 0.013,0.01 0.007,0.004 0,0" /></g><g
           transform="translate(7.2069,4.5828)"
           id="g96"><path
             id="path98"
             style="fill:#fc0204;fill-opacity:1;fill-rule:nonzero;stroke:none"
             d="M 0,0 C 0.006,0.003 0.011,0.009 0.014,0.016 L 0.106,0.28 C 0.11,0.292 0.107,0.305 0.097,0.313 l -0.156,0.13 C -0.072,0.453 -0.09,0.451 -0.101,0.439 -0.111,0.426 -0.109,0.407 -0.097,0.397 L 0.044,0.28 -0.042,0.036 C -0.047,0.02 -0.039,0.003 -0.024,-0.002 -0.016,-0.005 -0.007,-0.004 0,0" /></g><g
           transform="translate(7.4312,4.5055)"
           id="g100"><path
             id="path102"
             style="fill:#fc0204;fill-opacity:1;fill-rule:nonzero;stroke:none"
             d="m 0,0 c 0.09,-0.166 0.028,-0.374 -0.138,-0.463 -0.167,-0.09 -0.374,-0.028 -0.464,0.138 -0.089,0.166 -0.028,0.374 0.139,0.463 C -0.297,0.228 -0.09,0.166 0,0" /></g><g
           transform="translate(8.1302,3.2114)"
           id="g104"><path
             id="path106"
             style="fill:#fc0204;fill-opacity:1;fill-rule:nonzero;stroke:none"
             d="m 0,0 c -0.056,-0.108 -0.14,-0.198 -0.25,-0.257 -0.109,-0.06 -0.231,-0.081 -0.352,-0.068 0,0 -0.352,0.652 -0.051,0.815 C -0.352,0.652 0,0 0,0" /></g><g
           transform="translate(8.1005,3.9765)"
           id="g108"><path
             id="path110"
             style="fill:#fc0204;fill-opacity:1;fill-rule:nonzero;stroke:none"
             d="M 0,0 C 0.119,-0.221 0.138,-0.465 0.071,-0.667 0.06,-0.701 0.046,-0.734 0.03,-0.765 c -0.263,-0.021 -0.499,0.203 -0.499,0.203 0,0 0.055,-0.321 -0.103,-0.528 -0.035,0.004 -0.07,0.01 -0.105,0.019 -0.205,0.055 -0.399,0.204 -0.519,0.425 -0.208,0.387 -0.069,0.769 0.261,0.947 C -0.605,0.479 -0.209,0.386 0,0" /></g><g
           transform="translate(7.9536,3.8839)"
           id="g112"><path
             id="path114"
             style="fill:#fc0204;fill-opacity:1;fill-rule:nonzero;stroke:none"
             d="m 0,0 c 0.133,-0.246 0.041,-0.553 -0.205,-0.686 -0.246,-0.133 -0.553,-0.041 -0.686,0.205 -0.133,0.246 -0.041,0.553 0.205,0.686 C -0.44,0.338 -0.133,0.246 0,0" /></g><g
           transform="translate(7.3995,3.9674)"
           id="g116"><path
             id="path118"
             style="fill:#ffffff;fill-opacity:1;fill-rule:nonzero;stroke:none"
             d="M 0,0 0.197,-0.415 0.136,-0.447 -0.102,-0.055 Z" /></g><g
           transform="translate(7.6873,3.4084)"
           id="g120"><path
             id="path122"
             style="fill:#ffffff;fill-opacity:1;fill-rule:nonzero;stroke:none"
             d="m 0,0 -0.081,-0.044 -0.043,0.081 0.08,0.044 z" /></g><g
           transform="translate(4.2747,2.386)"
           id="g124"><path
             id="path126"
             style="fill:#fc0204;fill-opacity:1;fill-rule:nonzero;stroke:none"
             d="m 0,0 c -0.004,-0.002 -0.008,-0.003 -0.013,-0.003 l -0.573,0.01 c -0.012,0 -0.023,0.009 -0.025,0.021 l -0.084,0.364 -0.2,-0.026 c -0.015,-0.002 -0.028,0.008 -0.03,0.022 -0.002,0.015 0.008,0.028 0.023,0.03 l 0.224,0.029 c 0.013,0.002 0.026,-0.007 0.029,-0.02 L -0.564,0.06 -0.012,0.05 C 0.003,0.049 0.014,0.037 0.014,0.023 0.014,0.013 0.008,0.004 0,0" /></g><g
           transform="translate(3.8515,1.4604)"
           id="g128"><path
             id="path130"
             style="fill:#fc0204;fill-opacity:1;fill-rule:nonzero;stroke:none"
             d="m 0,0 c -0.002,-0.001 -0.003,-0.001 -0.005,-0.002 l -0.103,-0.032 c -0.014,-0.004 -0.028,0.004 -0.033,0.018 -0.004,0.014 0.004,0.029 0.018,0.033 l 0.085,0.026 0.029,0.43 c 10e-4,0.011 0.008,0.02 0.019,0.023 L 0.434,0.628 C 0.448,0.632 0.463,0.624 0.467,0.61 0.471,0.596 0.464,0.581 0.45,0.577 L 0.043,0.451 0.014,0.021 C 0.013,0.012 0.008,0.004 0,0" /></g><g
           transform="translate(4.4299,0.9173)"
           id="g132"><path
             id="path134"
             style="fill:#fc0204;fill-opacity:1;fill-rule:nonzero;stroke:none"
             d="m 0,0 c -0.01,-0.007 -0.023,-0.006 -0.033,0.002 -0.011,0.01 -0.012,0.026 -0.002,0.037 L 0.024,0.106 -0.175,0.488 C -0.18,0.497 -0.179,0.509 -0.172,0.517 L 0.122,0.851 C 0.132,0.862 0.149,0.863 0.16,0.853 0.171,0.843 0.172,0.827 0.162,0.816 L -0.12,0.496 0.08,0.114 C 0.085,0.105 0.083,0.093 0.076,0.085 L 0.005,0.004 C 0.003,0.003 0.002,0.001 0,0" /></g><g
           transform="translate(4.9893,2.772)"
           id="g136"><path
             id="path138"
             style="fill:#fc0204;fill-opacity:1;fill-rule:nonzero;stroke:none"
             d="M 0,0 C 0.004,0.002 0.007,0.005 0.01,0.009 L 0.315,0.494 C 0.322,0.504 0.321,0.518 0.312,0.526 L 0.054,0.796 0.185,0.949 C 0.195,0.96 0.194,0.977 0.183,0.987 0.171,0.996 0.155,0.995 0.145,0.984 L -0.002,0.812 C -0.011,0.802 -0.01,0.787 -0.001,0.777 L 0.26,0.505 -0.035,0.037 C -0.043,0.025 -0.039,0.009 -0.027,0.001 -0.018,-0.004 -0.008,-0.004 0,0" /></g><g
           transform="translate(6.1324,1.8367)"
           id="g140"><path
             id="path142"
             style="fill:#fc0204;fill-opacity:1;fill-rule:nonzero;stroke:none"
             d="M 0,0 C 0.011,0.004 0.018,0.016 0.016,0.028 0.014,0.043 0.001,0.053 -0.014,0.051 L -0.102,0.038 -0.312,0.414 C -0.317,0.423 -0.328,0.429 -0.339,0.427 L -0.779,0.364 C -0.793,0.362 -0.803,0.349 -0.801,0.334 -0.799,0.32 -0.786,0.31 -0.771,0.312 l 0.422,0.06 0.21,-0.376 c 0.005,-0.009 0.016,-0.015 0.027,-0.013 l 0.106,0.015 C -0.004,-0.001 -0.002,-0.001 0,0" /></g><g
           transform="translate(4.2152,3.0093)"
           id="g144"><path
             id="path146"
             style="fill:#fc0204;fill-opacity:1;fill-rule:nonzero;stroke:none"
             d="m 0,0 c -0.006,-0.003 -0.012,-0.004 -0.019,-0.002 l -0.243,0.06 c -0.011,0.003 -0.019,0.012 -0.02,0.023 l -0.02,0.181 c -0.002,0.014 0.008,0.027 0.023,0.029 0.014,0.001 0.028,-0.009 0.029,-0.023 L -0.231,0.105 -0.006,0.049 C 0.008,0.045 0.017,0.031 0.013,0.017 0.011,0.009 0.006,0.003 0,0" /></g><g
           transform="translate(4.5008,3.1635)"
           id="g148"><path
             id="path150"
             style="fill:#fc0204;fill-opacity:1;fill-rule:nonzero;stroke:none"
             d="M 0,0 C 0.006,0.003 0.01,0.008 0.012,0.015 L 0.095,0.251 C 0.099,0.261 0.096,0.273 0.087,0.28 l -0.14,0.116 C -0.064,0.406 -0.081,0.404 -0.09,0.393 -0.1,0.382 -0.098,0.365 -0.087,0.356 L 0.039,0.251 -0.038,0.032 C -0.042,0.018 -0.035,0.003 -0.021,-0.002 -0.014,-0.004 -0.006,-0.003 0,0" /></g><g
           transform="translate(4.7017,3.0943)"
           id="g152"><path
             id="path154"
             style="fill:#fc0204;fill-opacity:1;fill-rule:nonzero;stroke:none"
             d="m 0,0 c 0.08,-0.149 0.025,-0.335 -0.124,-0.415 -0.149,-0.08 -0.335,-0.025 -0.415,0.124 -0.08,0.149 -0.025,0.335 0.124,0.415 C -0.266,0.204 -0.08,0.149 0,0" /></g><g
           transform="translate(5.3277,1.9352)"
           id="g156"><path
             id="path158"
             style="fill:#fc0204;fill-opacity:1;fill-rule:nonzero;stroke:none"
             d="m 0,0 c -0.05,-0.097 -0.125,-0.178 -0.224,-0.231 -0.098,-0.053 -0.207,-0.071 -0.315,-0.06 0,0 -0.315,0.584 -0.046,0.73 C -0.315,0.584 0,0 0,0" /></g><g
           transform="translate(5.3011,2.6205)"
           id="g160"><path
             id="path162"
             style="fill:#fc0204;fill-opacity:1;fill-rule:nonzero;stroke:none"
             d="m 0,0 c 0.107,-0.198 0.124,-0.417 0.064,-0.597 -0.011,-0.031 -0.023,-0.06 -0.037,-0.088 -0.236,-0.019 -0.447,0.182 -0.447,0.182 0,0 0.049,-0.288 -0.092,-0.473 -0.032,0.003 -0.063,0.009 -0.094,0.017 -0.184,0.049 -0.358,0.183 -0.465,0.381 C -1.258,-0.232 -1.133,0.11 -0.837,0.27 -0.541,0.429 -0.187,0.346 0,0" /></g><g
           transform="translate(5.1696,2.5376)"
           id="g164"><path
             id="path166"
             style="fill:#fc0204;fill-opacity:1;fill-rule:nonzero;stroke:none"
             d="m 0,0 c 0.119,-0.22 0.037,-0.495 -0.183,-0.614 -0.221,-0.119 -0.496,-0.037 -0.615,0.183 -0.119,0.22 -0.037,0.495 0.184,0.614 C -0.394,0.302 -0.119,0.22 0,0" /></g><g
           transform="translate(4.6733,2.6123)"
           id="g168"><path
             id="path170"
             style="fill:#ffffff;fill-opacity:1;fill-rule:nonzero;stroke:none"
             d="M 0,0 0.176,-0.371 0.122,-0.4 -0.092,-0.05 Z" /></g><g
           transform="translate(4.931,2.1117)"
           id="g172"><path
             id="path174"
             style="fill:#ffffff;fill-opacity:1;fill-rule:nonzero;stroke:none"
             d="m 0,0 -0.072,-0.039 -0.039,0.072 0.072,0.039 z" /></g><g
           transform="translate(10.5983,13.5956)"
           id="g176"><path
             id="path178"
             style="fill:#292974;fill-opacity:1;fill-rule:nonzero;stroke:none"
             d="m 0,0 c -0.1,-0.21 -0.136,-0.276 -0.236,-0.234 l -0.007,0.003 h -0.008 c -0.019,-0.001 -0.037,-0.001 -0.056,-0.003 -0.035,0.005 -0.093,0.012 -0.143,0.015 0.021,0.045 0.056,0.106 0.109,0.185 C -0.12,0.303 0.183,0.505 0.365,0.601 0.176,0.369 0.074,0.155 0,0 m 17.206,-10.696 -0.021,0.016 c -0.033,0.022 -3.325,2.248 -4.636,3.731 -0.173,0.196 -0.35,0.422 -0.527,0.666 10e-4,0.017 0,0.034 0,0.052 v 0.015 l -0.01,0.011 c -0.04,0.037 -0.082,0.075 -0.125,0.113 -0.187,0.269 -0.373,0.555 -0.552,0.845 0.226,-0.145 0.453,-0.316 0.684,-0.526 l 0.065,-0.06 -0.006,0.089 c -10e-4,0.007 -0.059,0.777 -0.104,1.107 l -10e-4,0.009 -0.005,0.007 c -0.134,0.191 -0.994,0.713 -1.601,1.067 -0.033,0.062 -0.066,0.123 -0.096,0.182 0.53,-0.149 1.007,-0.44 1.61,-0.873 l 0.068,-0.049 -0.012,0.083 c -10e-4,0.008 -0.117,0.767 -0.219,1.153 l -0.002,0.007 -0.005,0.007 c -0.118,0.148 -0.88,0.528 -1.278,0.719 0.372,-0.074 0.638,-0.171 1.144,-0.396 l 0.075,-0.034 -0.028,0.079 C 11.616,-2.656 10.843,-0.633 7.987,1.04 7.601,1.266 7.227,1.435 6.869,1.56 v 0 C 6.727,1.715 6.469,1.829 6.074,1.919 5.843,1.972 5.614,2.012 5.389,2.04 5.429,2.104 5.469,2.165 5.502,2.207 5.728,2.504 6.094,3.175 6.109,3.203 L 6.128,3.237 4.605,3.852 4.593,3.815 C 4.592,3.81 4.438,3.291 4.077,2.877 3.738,2.489 3.406,2.084 3.355,2.022 2.915,1.955 2.509,1.851 2.144,1.722 1.712,1.679 0.864,1.564 0.218,1.284 -0.128,1.134 -0.458,0.804 -0.627,0.444 -0.709,0.267 -0.727,-0.033 -0.726,-0.261 -0.77,-0.272 -0.808,-0.283 -0.828,-0.289 -1.56,-0.41 -2.248,-0.714 -2.741,-1.146 -3.037,-1.404 -3.291,-1.735 -3.486,-2.105 -3.506,-2.146 -3.527,-2.186 -3.547,-2.228 -3.576,-2.257 -3.591,-2.275 -3.593,-2.276 L -3.597,-2.28 -3.6,-2.286 c -0.005,-0.012 -0.133,-0.315 -0.178,-0.477 -0.05,-0.178 -0.104,-0.535 -0.106,-0.549 l -0.014,-0.101 0.012,0.012 c -0.006,-0.126 0.004,-0.268 0.025,-0.416 -0.31,-0.111 -0.613,-0.263 -0.757,-0.452 -0.618,-0.738 -0.567,-1.514 -0.517,-1.813 0.052,-0.311 0.162,-0.522 0.243,-0.571 0.064,-0.038 0.118,-0.046 0.17,-0.037 0.081,0.014 0.156,0.075 0.241,0.145 0.04,0.035 0.086,0.073 0.139,0.11 0.037,0.027 0.082,0.061 0.135,0.101 0.271,0.205 0.725,0.547 1.168,0.716 0.046,0.018 0.09,0.034 0.131,0.048 0.243,-0.141 0.55,-0.262 0.909,-0.291 0.125,-0.01 0.247,-0.017 0.362,-0.023 l -0.017,-0.009 0.123,-0.003 c 0.55,-0.014 0.945,0.019 1.257,0.071 0.051,0.009 0.098,0.017 0.145,0.026 0.03,0.006 0.061,0.014 0.091,0.02 0.008,0.001 0.016,0.003 0.024,0.006 0.018,0.003 0.035,0.008 0.053,0.012 0.052,0.012 0.102,0.025 0.151,0.038 0.016,0.005 0.032,0.009 0.048,0.014 0.06,0.016 0.118,0.033 0.174,0.048 0.271,0.078 0.527,0.153 0.893,0.176 0.725,0.046 1.616,0.064 2.362,0.038 L 3.436,-6.039 C 3.313,-6.045 2.764,-6.106 2.132,-6.639 1.433,-7.228 1.085,-7.946 1.081,-7.953 l -0.04,-0.085 0.351,0.151 0.007,0.008 c 0.005,0.006 0.536,0.698 0.884,0.904 0.196,0.115 0.409,0.208 0.559,0.268 C 2.61,-6.895 2.21,-7.219 2.103,-7.314 1.921,-7.475 1.696,-7.776 1.687,-7.789 l -0.069,-0.091 0.464,0.159 0.006,0.004 c 0.534,0.444 1.226,0.973 1.845,1.133 0.519,0.121 1.29,-0.201 1.297,-0.205 l 0.041,0.055 -0.239,0.303 -0.01,0.004 C 5.017,-6.425 4.571,-6.265 4.33,-6.138 4.312,-6.129 4.3,-6.113 4.293,-6.089 4.261,-5.971 4.356,-5.724 4.464,-5.502 4.568,-5.513 4.665,-5.526 4.75,-5.541 5.088,-5.601 5.591,-5.62 6.044,-5.623 6.061,-5.628 6.142,-5.652 6.269,-5.689 L 6.153,-6.538 C 6.038,-6.56 5.613,-7.448 6.137,-7.23 c 0.063,0.027 0.117,0.051 0.165,0.073 0.222,0.101 0.334,0.154 0.977,0.172 0.359,0.01 0.608,-0.037 0.61,-0.037 l 0.12,-0.023 -0.267,0.249 -0.006,0.003 c -0.009,0.005 -0.232,0.098 -0.351,0.136 -0.121,0.04 -0.34,0.093 -0.423,0.111 l 0.102,0.628 c 0.681,-0.196 1.586,-0.45 2.336,-0.641 0.204,-0.053 0.407,-0.099 0.604,-0.14 0.431,-0.77 0.909,-1.561 1.356,-2.179 1.274,-1.753 4.515,-5.216 4.548,-5.25 l 0.036,-0.039 0.642,1.439 -2.529,2.712 2.626,-2.231 z" /></g><g
           transform="translate(8.3941,8.2561)"
           id="g180"><path
             id="path182"
             style="fill:#292974;fill-opacity:1;fill-rule:nonzero;stroke:none"
             d="m 0,0 c -0.032,-0.099 -0.122,-0.115 -0.269,-0.142 -0.13,-0.023 -0.306,-0.055 -0.558,-0.152 -0.449,-0.172 -0.91,-0.519 -1.185,-0.727 -0.053,-0.04 -0.099,-0.075 -0.137,-0.102 -0.053,-0.038 -0.1,-0.077 -0.141,-0.111 -0.087,-0.072 -0.162,-0.134 -0.244,-0.148 -0.053,-0.01 -0.109,0 -0.173,0.038 -0.083,0.05 -0.194,0.264 -0.247,0.579 -0.051,0.303 -0.102,1.091 0.525,1.839 0.331,0.433 1.467,0.677 1.712,0.673 0.219,-0.005 0.352,-0.334 0.48,-0.653 C -0.216,1.041 -0.195,0.988 -0.173,0.938 -0.024,0.584 0.053,0.163 0,0" /></g><g
           transform="translate(3.4987,9.1203)"
           id="g184"><path
             id="path186"
             style="fill:#292974;fill-opacity:1;fill-rule:nonzero;stroke:none"
             d="m 0,0 c -0.143,-0.113 -0.35,-0.165 -0.59,-0.158 -0.037,0.001 -0.075,0.004 -0.114,0.008 -0.252,0.026 -0.531,0.113 -0.802,0.258 -0.026,0.014 -0.053,0.029 -0.079,0.044 -0.044,0.026 -0.087,0.052 -0.13,0.081 -0.221,0.146 -0.409,0.318 -0.555,0.498 -0.025,0.03 -0.048,0.06 -0.07,0.091 -0.027,0.036 -0.051,0.072 -0.074,0.109 -0.024,0.038 -0.046,0.077 -0.067,0.115 -0.094,0.18 -0.144,0.357 -0.141,0.516 0,0.032 0.003,0.062 0.007,0.092 0.012,0.079 0.04,0.152 0.082,0.217 0.09,0.135 0.238,0.22 0.423,0.258 0.049,0.01 0.1,0.017 0.153,0.02 0.036,0.002 0.073,0.003 0.11,0.002 C -1.553,2.145 -1.209,2.049 -0.879,1.865 -0.853,1.851 -0.827,1.836 -0.801,1.82 -0.769,1.801 -0.737,1.781 -0.705,1.76 -0.403,1.56 -0.161,1.311 -0.004,1.058 0.017,1.025 0.036,0.992 0.054,0.959 V 0.958 C 0.221,0.646 0.255,0.338 0.112,0.121 0.1,0.102 0.086,0.085 0.071,0.068 0.05,0.043 0.026,0.02 0,0 M 7.404,-2.984 7.374,-2.97 0.53,0.207 C 0.672,0.788 0.267,1.544 -0.508,2.057 -0.928,2.335 -1.394,2.495 -1.818,2.508 -2.274,2.521 -2.633,2.365 -2.83,2.068 -2.923,1.927 -2.972,1.766 -2.979,1.596 -2.982,1.539 -2.98,1.482 -2.973,1.423 -2.951,1.217 -2.874,1 -2.749,0.788 -2.733,0.761 -2.716,0.734 -2.698,0.707 -2.651,0.635 -2.599,0.563 -2.541,0.493 -2.51,0.457 -2.478,0.42 -2.445,0.384 c 0.15,-0.161 0.329,-0.313 0.533,-0.448 0.062,-0.042 0.126,-0.08 0.19,-0.116 0.026,-0.015 0.053,-0.029 0.079,-0.043 0.214,-0.112 0.434,-0.194 0.651,-0.242 0.035,-0.008 0.07,-0.015 0.105,-0.021 0.096,-0.016 0.192,-0.026 0.285,-0.029 0.031,-0.001 0.061,-0.001 0.091,0 0.032,0 0.063,0.002 0.094,0.004 0.062,0.005 0.121,0.013 0.178,0.025 0.087,0.017 0.167,0.043 0.242,0.075 0.056,0.025 0.109,0.054 0.158,0.088 0.085,0.057 0.158,0.126 0.218,0.207 l 6.83,-3.17 c 0,-10e-4 0,-10e-4 0,-10e-4 l 0.056,-0.026 c 0.015,-0.003 0.029,-0.006 0.045,-0.006 0.099,-10e-4 0.181,0.078 0.182,0.178 0.001,0.067 -0.035,0.126 -0.088,0.157" /></g><g
           transform="translate(3.8027,9.3432)"
           id="g188"><path
             id="path190"
             style="fill:#455a64;fill-opacity:1;fill-rule:nonzero;stroke:none"
             d="m 0,0 -0.01,-0.035 0.003,-0.002 c -0.026,-0.102 -0.085,-0.236 -0.162,-0.376 -0.017,0.087 -0.038,0.173 -0.064,0.258 -0.05,0.165 -0.118,0.323 -0.203,0.473 0.07,0.135 0.132,0.275 0.186,0.418 v 0 c 0.021,0.055 0.04,0.11 0.059,0.166 C 0.002,0.59 0.079,0.267 0,0 m -0.623,-1.053 c -0.025,0.109 -0.057,0.216 -0.098,0.319 -0.047,0.122 -0.106,0.24 -0.175,0.351 0.001,0.001 0.002,0.001 0.002,0.002 0.155,0.189 0.291,0.392 0.409,0.606 0.076,-0.142 0.137,-0.293 0.181,-0.448 0.029,-0.101 0.051,-0.205 0.066,-0.31 C -0.259,-0.566 -0.28,-0.6 -0.301,-0.634 -0.405,-0.794 -0.52,-0.945 -0.623,-1.053 m -0.138,-0.119 c -0.044,-0.029 -0.09,-0.058 -0.135,-0.086 -0.092,-0.058 -0.184,-0.116 -0.272,-0.18 -0.057,0.178 -0.141,0.348 -0.253,0.499 0.045,0.046 0.09,0.091 0.135,0.135 0.031,0.032 0.063,0.063 0.095,0.095 0.046,0.047 0.093,0.095 0.137,0.143 0.034,0.036 0.066,0.073 0.098,0.11 0.054,-0.09 0.101,-0.185 0.141,-0.282 0.051,-0.125 0.089,-0.255 0.116,-0.387 -0.022,-0.018 -0.042,-0.035 -0.062,-0.047 m -0.745,-0.612 c -0.026,-0.042 -0.047,-0.087 -0.067,-0.132 -0.077,0.147 -0.172,0.283 -0.287,0.403 0.03,0.056 0.061,0.111 0.096,0.164 0.081,0.123 0.179,0.236 0.281,0.344 0.108,-0.149 0.189,-0.315 0.24,-0.491 -0.101,-0.082 -0.193,-0.175 -0.263,-0.288 m -0.145,-0.331 c -0.035,-0.097 -0.071,-0.196 -0.12,-0.285 -0.06,-0.107 -0.144,-0.198 -0.241,-0.27 -0.042,0.136 -0.103,0.266 -0.185,0.382 0.047,0.102 0.09,0.207 0.131,0.309 0.051,0.127 0.104,0.256 0.164,0.381 0.117,-0.127 0.211,-0.272 0.283,-0.428 -0.011,-0.03 -0.022,-0.06 -0.032,-0.089 m -0.924,-0.746 c 0.124,0.125 0.237,0.283 0.334,0.478 0.067,-0.105 0.117,-0.22 0.151,-0.339 -0.146,-0.088 -0.316,-0.137 -0.485,-0.139 m -0.118,0.008 c -0.066,0.008 -0.131,0.023 -0.194,0.046 -0.009,0.004 -0.018,0.009 -0.027,0.013 l 0.318,0.771 c 0.006,-0.004 0.013,-0.007 0.019,-0.012 0.107,-0.071 0.199,-0.163 0.277,-0.266 -0.001,-0.003 -0.003,-0.006 -0.004,-0.009 -0.085,-0.178 -0.213,-0.387 -0.389,-0.543 m -0.301,0.098 c -0.038,0.02 -0.074,0.043 -0.107,0.069 -0.052,0.234 -0.051,0.479 0.012,0.711 0.012,0.042 0.026,0.083 0.04,0.125 0.132,-0.023 0.258,-0.065 0.375,-0.128 z m -0.18,0.803 c -0.057,-0.207 -0.067,-0.424 -0.035,-0.636 -0.184,0.195 -0.286,0.471 -0.257,0.738 0.108,0.018 0.218,0.025 0.328,0.014 -0.013,-0.038 -0.026,-0.077 -0.036,-0.116 m -0.152,0.539 c 0.048,0.108 0.095,0.219 0.124,0.335 0.127,0.007 0.254,0.001 0.379,-0.02 -0.042,-0.121 -0.097,-0.239 -0.154,-0.361 -0.045,-0.095 -0.089,-0.192 -0.128,-0.292 -0.115,0.014 -0.231,0.011 -0.345,-0.005 0.026,0.117 0.076,0.232 0.124,0.343 m 0.027,1.026 c 0.187,0.032 0.365,0.046 0.532,0.04 0.022,-0.159 0.035,-0.313 0.015,-0.469 -0.009,-0.067 -0.024,-0.133 -0.043,-0.197 -0.128,0.023 -0.259,0.031 -0.389,0.025 0.004,0.027 0.007,0.053 0.008,0.08 0.008,0.184 -0.051,0.355 -0.123,0.521 m -0.058,0.13 c -0.043,0.093 -0.087,0.189 -0.12,0.285 -0.033,0.096 -0.048,0.194 -0.051,0.293 0.167,0.078 0.344,0.133 0.526,0.163 0.055,0.009 0.11,0.016 0.166,0.02 -0.007,-0.078 -0.011,-0.156 -0.009,-0.233 0.001,-0.013 0.001,-0.026 0.002,-0.038 0.006,-0.138 0.029,-0.276 0.05,-0.41 0.004,-0.027 0.008,-0.053 0.013,-0.08 -0.176,0.005 -0.362,-0.011 -0.557,-0.045 -0.007,0.015 -0.014,0.03 -0.02,0.045 m 0.08,1.458 c 0.007,0.013 0.014,0.025 0.021,0.038 0.107,0.042 0.217,0.075 0.33,0.101 0.114,0.025 0.23,0.042 0.346,0.049 C -2.673,1.198 -2.741,1.009 -2.785,0.823 -2.803,0.746 -2.817,0.67 -2.827,0.594 -2.903,0.588 -2.978,0.579 -3.053,0.565 -3.216,0.536 -3.375,0.487 -3.526,0.42 c 0.016,0.265 0.117,0.533 0.249,0.781 m 0.329,0.521 c 0.11,0.166 0.289,0.272 0.509,0.316 0.087,0.018 0.179,0.026 0.277,0.025 C -2.196,2.018 -2.229,1.972 -2.261,1.926 -2.34,1.812 -2.415,1.695 -2.484,1.574 -2.501,1.543 -2.516,1.512 -2.533,1.481 -2.662,1.476 -2.792,1.458 -2.919,1.431 -3.01,1.412 -3.1,1.387 -3.189,1.357 c 0.079,0.132 0.162,0.255 0.241,0.365 m 0.893,0.336 C -1.767,2.037 -1.445,1.94 -1.132,1.767 L -1.183,1.642 -1.357,1.222 c -0.331,0.174 -0.702,0.261 -1.074,0.261 0.009,0.016 0.016,0.031 0.025,0.047 0.077,0.137 0.164,0.27 0.255,0.398 0.032,0.044 0.063,0.087 0.096,0.13 M -1.601,0.317 C -1.61,0.322 -1.619,0.326 -1.627,0.331 l 0.315,0.764 c 0.32,-0.189 0.585,-0.461 0.774,-0.779 -0.116,-0.219 -0.253,-0.428 -0.409,-0.621 -0.171,0.251 -0.393,0.467 -0.654,0.622 m -0.597,-1.556 c -0.02,0.013 -0.041,0.024 -0.061,0.035 l 0.269,0.655 c 0.174,-0.098 0.327,-0.229 0.453,-0.384 -0.109,-0.114 -0.214,-0.234 -0.301,-0.367 -0.032,-0.048 -0.061,-0.098 -0.088,-0.148 -0.083,0.079 -0.174,0.149 -0.272,0.209 m -0.095,-0.047 c 0.016,-0.01 0.032,-0.019 0.048,-0.028 0.1,-0.062 0.193,-0.135 0.277,-0.216 -0.067,-0.137 -0.125,-0.277 -0.181,-0.416 -0.035,-0.086 -0.071,-0.174 -0.109,-0.261 -0.078,0.094 -0.168,0.178 -0.269,0.246 -0.011,0.008 -0.023,0.015 -0.035,0.022 z m -0.079,0.041 -0.268,-0.649 c -0.117,0.062 -0.244,0.106 -0.375,0.13 0.037,0.09 0.078,0.18 0.119,0.267 0.057,0.124 0.116,0.25 0.161,0.381 0.126,-0.028 0.247,-0.072 0.363,-0.129 m -0.305,0.893 c 0.194,-0.015 0.373,-0.055 0.537,-0.124 0.024,-0.009 0.048,-0.021 0.071,-0.032 l -0.269,-0.654 c -0.118,0.058 -0.242,0.102 -0.37,0.131 0.02,0.067 0.035,0.134 0.044,0.204 0.021,0.159 0.009,0.318 -0.013,0.475 m -0.041,1.06 c 0.043,0.223 0.123,0.452 0.24,0.685 0.376,0.008 0.753,-0.076 1.087,-0.254 L -1.706,0.374 c -0.289,0.147 -0.613,0.222 -0.939,0.225 -0.03,0 -0.061,0 -0.091,-0.001 0.005,0.036 0.011,0.073 0.018,0.11 M -2.754,0.237 c -0.005,0.09 -10e-4,0.18 0.007,0.272 0.058,0.002 0.115,0.002 0.173,-0.001 0.29,-0.012 0.577,-0.085 0.834,-0.217 l -0.149,-0.362 -0.137,-0.332 -0.009,-0.023 c -0.023,0.011 -0.047,0.023 -0.071,0.033 -0.178,0.074 -0.373,0.116 -0.583,0.131 -0.006,0.033 -0.011,0.066 -0.016,0.099 -0.017,0.107 -0.034,0.216 -0.044,0.324 -0.002,0.026 -0.004,0.051 -0.005,0.076 m 1.748,-0.614 c -0.037,-0.044 -0.074,-0.087 -0.113,-0.128 -0.057,-0.062 -0.117,-0.123 -0.177,-0.183 -0.017,-0.017 -0.035,-0.035 -0.053,-0.053 -0.042,-0.042 -0.085,-0.084 -0.127,-0.127 -0.133,0.162 -0.296,0.3 -0.479,0.401 l 0.008,0.021 0.137,0.331 0.149,0.363 c 0.005,-0.003 0.01,-0.005 0.014,-0.008 0.257,-0.151 0.473,-0.365 0.639,-0.613 0.001,-0.001 0.001,-0.003 0.002,-0.004 M -1.054,1.722 C -1.014,1.699 -0.975,1.674 -0.935,1.648 -0.652,1.461 -0.42,1.234 -0.254,0.997 -0.271,0.943 -0.289,0.889 -0.308,0.835 -0.36,0.69 -0.42,0.548 -0.489,0.409 -0.686,0.723 -0.956,0.991 -1.278,1.178 l 0.173,0.42 z m 0.168,0.001 c -0.832,0.55 -1.79,0.572 -2.136,0.05 -0.085,-0.12 -0.177,-0.255 -0.261,-0.4 -0.245,-0.418 -0.435,-0.917 -0.278,-1.374 0.034,-0.1 0.079,-0.198 0.122,-0.293 0.095,-0.205 0.183,-0.399 0.174,-0.61 -0.007,-0.163 -0.073,-0.314 -0.142,-0.473 -0.051,-0.117 -0.104,-0.239 -0.133,-0.367 -0.089,-0.41 0.119,-0.859 0.475,-1.073 0.006,-0.022 0.01,-0.019 0.016,-0.018 0.005,0 0.02,-0.003 0.02,-0.003 0.036,-0.019 0.073,-0.037 0.111,-0.052 0.172,-0.065 0.359,-0.075 0.539,-0.038 0.282,0.057 0.544,0.23 0.686,0.484 0.053,0.095 0.09,0.199 0.126,0.298 0.04,0.113 0.078,0.219 0.137,0.315 0.133,0.217 0.361,0.359 0.581,0.497 0.046,0.029 0.092,0.058 0.137,0.087 0.163,0.107 0.396,0.406 0.569,0.701 0.115,0.196 0.205,0.39 0.23,0.525 l 0.001,0.006 C 0.24,0.519 -0.168,1.248 -0.886,1.723" /></g><g
           transform="translate(10.1347,13.3765)"
           id="g192"><path
             id="path194"
             style="fill:#222260;fill-opacity:1;fill-rule:nonzero;stroke:none"
             d="m 0,0 c 0,0 1.266,-0.746 3.119,-0.436 1.853,0.311 3.459,2.569 3.459,2.569 L 8.382,1.194 c 0,0 -2.988,-1.757 -4.465,-2.214 -1.478,-0.457 -3.249,0.579 -4.192,0.979 z" /></g><g
           transform="translate(16.1919,14.6104)"
           id="g196"><path
             id="path198"
             style="fill:#ffffff;fill-opacity:1;fill-rule:nonzero;stroke:none"
             d="m 0,0 1.069,-0.512 -0.243,-0.195 -1.06,0.502 z" /></g><g
           transform="translate(10.3721,13.3692)"
           id="g200"><path
             id="path202"
             style="fill:#222260;fill-opacity:1;fill-rule:nonzero;stroke:none"
             d="m 0,0 -3.67,-3.195 c 0,0 0.054,0.689 0.302,1.137 0,0 0.959,1.094 1.657,1.488 0.699,0.394 1.276,0.577 1.394,0.572 C -0.271,0.001 -0.243,0.01 -0.188,0.01 -0.105,0.01 0,0 0,0" /></g><g
           transform="translate(15.1905,15.9486)"
           id="g204"><path
             id="path206"
             style="fill:#ffffff;fill-opacity:1;fill-rule:nonzero;stroke:none"
             d="M 0,0 C 0,0 0.206,0.272 0.291,0.419 0.379,0.57 0.516,0.894 0.516,0.894" /></g><g
           transform="translate(15.3113,15.8571)"
           id="g208"><path
             id="path210"
             style="fill:#ffffff;fill-opacity:1;fill-rule:nonzero;stroke:none"
             d="m 0,0 -0.242,0.183 c 0.002,0.003 0.201,0.266 0.281,0.403 0.082,0.142 0.215,0.455 0.216,0.458 L 0.534,0.926 C 0.529,0.913 0.393,0.592 0.301,0.434 0.212,0.281 0.009,0.011 0,0" /></g></g></g></g></svg>