<?xml version="1.0" encoding="UTF-8" standalone="no"?>
<!-- Created with Inkscape (http://www.inkscape.org/) -->

<svg
   xmlns:dc="http://purl.org/dc/elements/1.1/"
   xmlns:cc="http://creativecommons.org/ns#"
   xmlns:rdf="http://www.w3.org/1999/02/22-rdf-syntax-ns#"
   xmlns:svg="http://www.w3.org/2000/svg"
   xmlns="http://www.w3.org/2000/svg"
   xmlns:sodipodi="http://sodipodi.sourceforge.net/DTD/sodipodi-0.dtd"
   xmlns:inkscape="http://www.inkscape.org/namespaces/inkscape"
   width="600.06732"
   height="558.20709"
   id="svg2"
   version="1.1"
   inkscape:version="0.48.3.1 r9886"
   sodipodi:docname="diffy.svg"
   inkscape:export-filename="/home/sarah/art/diffy.png"
   inkscape:export-xdpi="500"
   inkscape:export-ydpi="500">
  <defs
     id="defs4" />
  <sodipodi:namedview
     id="base"
     pagecolor="#ffffff"
     bordercolor="#666666"
     borderopacity="1.0"
     inkscape:pageopacity="0.0"
     inkscape:pageshadow="2"
     inkscape:zoom="0.66618777"
     inkscape:cx="300.03365"
     inkscape:cy="258.35521"
     inkscape:document-units="px"
     inkscape:current-layer="layer1"
     showgrid="false"
     inkscape:window-width="1366"
     inkscape:window-height="744"
     inkscape:window-x="0"
     inkscape:window-y="24"
     inkscape:window-maximized="1"
     fit-margin-top="0"
     fit-margin-left="0"
     fit-margin-right="0"
     fit-margin-bottom="0" />
  <metadata
     id="metadata7">
    <rdf:RDF>
      <cc:Work
         rdf:about="">
        <dc:format>image/svg+xml</dc:format>
        <dc:type
           rdf:resource="http://purl.org/dc/dcmitype/StillImage" />
        <dc:title />
      </cc:Work>
    </rdf:RDF>
  </metadata>
  <g
     inkscape:label="Layer 1"
     inkscape:groupmode="layer"
     id="layer1"
     transform="translate(-3069.8852,2251.5084)">
    <text
       xml:space="preserve"
       style="font-size:51.65934372px;font-style:normal;font-variant:normal;font-weight:bold;font-stretch:normal;text-align:end;line-height:125%;letter-spacing:0px;word-spacing:0px;text-anchor:end;fill:#000000;fill-opacity:1;stroke:none;font-family:FreeSans;-inkscape-font-specification:FreeSans Bold"
       x="475.83173"
       y="900.47076"
       id="text4257"
       sodipodi:linespacing="125%"
       transform="scale(1.1411753,0.87628955)"><tspan
         sodipodi:role="line"
         x="475.83173"
         y="900.47076"
         style="font-style:normal;font-variant:normal;font-weight:bold;font-stretch:normal;text-align:end;text-anchor:end;font-family:Acme;-inkscape-font-specification:Acme Bold"
         id="tspan3008" /></text>
    <flowRoot
       xml:space="preserve"
       id="flowRoot4263"
       style="font-size:12px;font-style:normal;font-weight:normal;line-height:125%;letter-spacing:0px;word-spacing:0px;fill:#000000;fill-opacity:1;stroke:none;font-family:Sans"><flowRegion
         id="flowRegion4265"><rect
           id="rect4267"
           width="313.14728"
           height="343.45187"
           x="-335.37064"
           y="205.85435" /></flowRegion><flowPara
         id="flowPara4269" /></flowRoot>    <g
       id="g10119"
       transform="matrix(0.99201906,-0.12608805,0.12608805,0.99201906,273.85438,408.58042)">
      <path
         sodipodi:nodetypes="csccscac"
         inkscape:connector-curvature="0"
         id="path4130"
         d="m 3378.9965,-2206.2972 c 0,0 13.4039,-8.8398 27.0022,-17.1718 13.5984,-8.3319 22.2322,-21.276 22.2322,-21.276 l 34.2799,28.1467 c 0,0 -16.0641,15.553 -24.7742,21.6893 -3.709,2.6129 -10.9463,9.1577 -10.9463,9.1577 0,0 -14.3617,-10.0769 -22.3623,-13.5225 -8.0773,-3.4786 -25.4315,-7.0234 -25.4315,-7.0234 z"
         style="fill:#ffffff;stroke:#000000;stroke-width:2;stroke-linecap:butt;stroke-linejoin:miter;stroke-miterlimit:4;stroke-opacity:1;stroke-dasharray:none" />
      <path
         sodipodi:nodetypes="cac"
         inkscape:connector-curvature="0"
         d="m 3414.7387,-2204.9828 c 0,0 8.2233,-5.8571 11.9326,-9.2622 3.8224,-3.5089 10.5596,-11.437 10.5596,-11.437"
         style="fill:#ffffff;stroke:#ff0000;stroke-width:8.97858429;stroke-linecap:butt;stroke-linejoin:miter;stroke-miterlimit:4;stroke-opacity:1;stroke-dasharray:none"
         id="path4185" />
      <path
         sodipodi:nodetypes="cascacsc"
         inkscape:connector-curvature="0"
         id="path3307"
         d="m 3247.6516,-2171.4037 c 0,0 4.3348,-19.2835 10.7071,-26.2701 7.4284,-8.1446 19.072,-14.1542 29.3495,-15.24 27.8177,-2.9386 63.2371,6.1908 63.2371,6.1908 0,0 -30.8042,0.7262 -45.6022,4.5134 -5.1922,1.3289 -14.7941,6.2977 -14.7941,6.2977 0,0 -16.1166,0.8374 -29.8971,12.0927 -13.7804,11.2552 -3.0344,9.7831 -3.0344,9.7831"
         style="fill:#ffffff;stroke:#000000;stroke-width:2;stroke-linecap:butt;stroke-linejoin:miter;stroke-miterlimit:4;stroke-opacity:1;stroke-dasharray:none" />
      <path
         sodipodi:nodetypes="ccsccscscccccscc"
         inkscape:connector-curvature="0"
         id="path3011"
         d="m 3332.9985,-2012.4352 -20.0742,24.9886 c 0,0 -16.3479,-5.082 -40.3255,4.9725 -23.9776,10.0546 -39.2193,26.4042 -39.2193,26.4042 l 7.8897,-0.7975 c 0,0 20.4818,-14.4371 31.9614,-17.1294 11.4796,-2.6923 23.6197,-2.8388 23.6197,-2.8388 0,0 -25.492,10.0264 -30.7497,12.3759 -6.2584,2.7968 -15.0874,9.199 -15.0874,9.199 l 10.4761,-0.2965 c 17.6867,-7.2528 41.3221,-16.0187 59.9685,-15.047 15.5919,1.1274 33.9405,16.7543 33.9405,16.7543 l -3.8165,-9.9895 c 0,0 -10.8307,-8.1932 -16.3866,-13.7491 -5.5558,-5.5558 17.5848,-25.8193 17.5848,-25.8193 -14.3098,-2.8351 -2.1172,-7.9424 -19.7815,-9.0274 z"
         style="fill:#ffff00;stroke:#000000;stroke-width:2;stroke-linecap:butt;stroke-linejoin:miter;stroke-miterlimit:4;stroke-opacity:1;stroke-dasharray:none" />
      <path
         style="fill:#ffff00;stroke:#000000;stroke-width:2;stroke-linecap:butt;stroke-linejoin:miter;stroke-miterlimit:4;stroke-opacity:1;stroke-dasharray:none"
         d="m 3397.9929,-1984.0461 -15.5774,33.0846 c 0,0 -14.4499,-2.2165 -39.5097,4.7139 -25.0597,6.9303 -44.9575,20.0476 -44.9575,20.0476 l 10.5706,1.822 c 0,0 19.7276,-11.1182 30.516,-14.1955 7.747,-2.2097 23.9934,-2.9008 23.9934,-2.9008 0,0 -20.2687,6.6869 -30.057,10.9033 -5.4067,2.329 -15.7817,7.9273 -15.7817,7.9273 l 10.8391,1.5269 c 0,0 31.056,-11.8625 47.4047,-13.3504 11.1103,-1.0112 11.8331,-2.962 33.324,3.1079 10.0509,2.8388 16.3928,6.252 16.3928,6.252 l -3.3122,-5.8696 c 0,0 -5.3909,-4.5711 -8.2712,-6.6111 -3.5982,-2.5484 -11.2202,-7.0059 -11.2202,-7.0059 l 15.4484,-30.858 c -13.3255,-5.9362 -2.8177,-3.6211 -19.8021,-8.5942 z"
         id="path3013"
         inkscape:connector-curvature="0"
         sodipodi:nodetypes="ccsccacaccasccaccc" />
      <path
         sodipodi:nodetypes="aaczsccsssca"
         inkscape:connector-curvature="0"
         id="path3014"
         d="m 3138.8926,-2124.2277 c 9.8375,-20.5358 27.6337,-38.9533 48.4705,-48.136 22.7321,-10.018 51.1582,-10.0879 74.4382,-3.5941 7.6944,6.5 10.3115,-17.1804 46.9059,-27.4208 36.5944,-10.2403 91.6429,-6.509 142.1505,22.7854 54.0494,31.3487 -23.7386,41.9213 -8.0812,94.4492 32.3844,113.578 -63.1345,101.5204 -63.1345,101.5204 0,0 -25.2539,-16.1625 -35.3554,-17.1726 -10.1015,-1.0102 -46.6429,-25.1251 -68.8662,-28.6607 -22.2234,-3.5355 -36.9003,18.6222 -107.991,-9.9282 -24.3178,-9.7661 -33.8401,-33.335 -33.8401,-33.335 0,0 -2.0102,-35.2405 5.3033,-50.5076 z"
         style="fill:#0000ff;stroke:#000000;stroke-width:2;stroke-linecap:butt;stroke-linejoin:miter;stroke-miterlimit:4;stroke-opacity:1;stroke-dasharray:none" />
      <path
         sodipodi:nodetypes="cssscscsac"
         inkscape:connector-curvature="0"
         id="path3028"
         d="m 3179.7636,-2035.4822 c 0,0 33.988,-7.9036 57.2215,-14.9746 23.2335,-7.0711 36.1637,-43.7474 71.519,-48.7981 35.3554,-5.0508 68.528,22.1624 80.6498,47.4162 12.1218,25.2539 50.6701,55.6193 50.6701,55.6193 0,0 1.0101,11.1117 -14.1422,18.1828 -15.1522,7.0711 -10.4989,7.6628 -10.4989,7.6628 0,0 -43.1103,-11.4139 -62.396,-21.4139 -19.2857,-10 -61.236,-23.044 -92.9377,-30.7963 -26.2653,-6.4228 -35.0334,2.5255 -80.0856,-12.8982 z"
         style="fill:#ff6600;stroke:#000000;stroke-width:2;stroke-linecap:butt;stroke-linejoin:miter;stroke-miterlimit:4;stroke-opacity:1;stroke-dasharray:none" />
      <path
         sodipodi:nodetypes="cscccccscc"
         inkscape:connector-curvature="0"
         id="path3009"
         d="m 3470.1209,-2002.8128 c 0,0 13.8937,99.0002 33.6829,157.8517 19.7893,58.8514 78.4464,180.4742 78.4464,180.4742 l 28.1031,-31.8521 -52.5625,-109.7203 60.5152,95.9016 26.0124,-35.7271 c 0,0 -70.663,-88.4878 -93.8954,-140.4597 -23.2324,-51.9718 -37.4945,-152.9082 -37.4945,-152.9082 z"
         style="fill:#0000ff;fill-opacity:1;stroke:#000000;stroke-width:2;stroke-linecap:butt;stroke-linejoin:miter;stroke-miterlimit:4;stroke-opacity:1;stroke-dasharray:none" />
      <path
         sodipodi:nodetypes="csscsccccccccccsc"
         inkscape:connector-curvature="0"
         id="path3016"
         d="m 3359.2154,-2191.502 c 0,0 -40.7142,5 -57.1428,42.1428 -16.4286,37.1429 50.7143,115.7143 60.7143,132.1429 10,16.4286 24.2857,38.5714 24.2857,38.5714 0,0 47.6766,32.0335 82.9062,53.8444 32.6567,20.2179 65.2266,33.1109 65.2266,33.1109 0,0 1.1687,-0.4937 7.0265,-19.1963 -12.1218,-21.7183 -38.3216,-53.2543 -54.5036,-69.192 24.2792,14.1167 43.346,28.1254 60.1041,56.5482 0,0 4.9588,-21.3916 6.5659,-30.7894 -3.0357,-9.5763 -47.4771,-56.5685 -47.4771,-56.5685 20.5517,8.7613 33.7508,23.0255 50.0892,44.7732 0,0 3.3263,-21.5598 3.8366,-32.9472 -2.5253,-6.566 -33.7228,-35.0595 -33.7228,-35.0595 13.1654,6.6374 19.714,11.0661 34.4127,24.0476 0,0 -3.0357,-60.7142 -66.6072,-130.7142 -63.5714,-70 -135.7143,-50.7143 -135.7143,-50.7143 z"
         style="fill:#000080;stroke:#000000;stroke-width:2;stroke-linecap:butt;stroke-linejoin:miter;stroke-miterlimit:4;stroke-opacity:1;stroke-dasharray:none" />
      <g
         transform="translate(2935.644,-2513.1499)"
         id="g3138">
        <path
           style="fill:#ff0000;stroke:#000000;stroke-width:2;stroke-linecap:butt;stroke-linejoin:miter;stroke-miterlimit:4;stroke-opacity:1;stroke-dasharray:none"
           d="m 337.66259,394.0585 c 0,0 -28.86328,-30.61257 -60.78781,-25.80202 -31.92454,4.81054 -41.10831,33.67382 -39.79634,39.79633 1.31197,6.12252 13.557,11.80771 22.30345,15.74361 8.74644,3.9359 32.79917,-0.43732 45.48152,-6.55984 12.68235,-6.12251 32.79918,-23.17808 32.79918,-23.17808 z"
           id="path3022"
           inkscape:connector-curvature="0" />
        <path
           style="fill:#ffff00;fill-opacity:1;stroke:#000000;stroke-width:3;stroke-miterlimit:4"
           d="m 286.65383,372.49887 c 12.50235,2.18615 20.86528,14.09354 18.67912,26.59589 -2.18615,12.50234 -14.09354,20.86527 -26.59589,18.67911 -12.50235,-2.18616 -20.86528,-14.09354 -18.67912,-26.59588 z"
           id="path3024"
           inkscape:connector-curvature="0"
           sodipodi:nodetypes="csscc" />
        <path
           sodipodi:type="arc"
           style="fill:#000000;fill-opacity:1;stroke:none"
           id="path3026"
           sodipodi:cx="229.64285"
           sodipodi:cy="403.79074"
           sodipodi:rx="8.2142859"
           sodipodi:ry="8.2142859"
           d="m 237.85714,403.79074 c 0,4.53663 -3.67766,8.21429 -8.21429,8.21429 -4.53662,0 -8.21428,-3.67766 -8.21428,-8.21429 0,-4.53662 3.67766,-8.21428 8.21428,-8.21428 4.53663,0 8.21429,3.67766 8.21429,8.21428 z"
           transform="matrix(1.5694327,0,0,1.5694327,-85.566867,-233.30737)" />
      </g>
      <path
         sodipodi:nodetypes="cssssssc"
         style="fill:#ffff00;stroke:#000000;stroke-width:2;stroke-linecap:butt;stroke-linejoin:miter;stroke-miterlimit:4;stroke-opacity:1;stroke-dasharray:none"
         d="m 3110.2692,-2103.8575 c -32.3249,20.7081 -31.4522,56.0845 -27.4116,60.6301 4.0406,4.5457 8.0812,1.0102 15.6574,-1.5152 7.5761,-2.5254 26.2639,-10.1015 42.4264,-11.1117 16.1624,-1.0101 21.2132,3.0305 23.7386,-0.505 2.5254,-3.5356 4.0406,-15.1523 3.0304,-25.7589 -1.0101,-10.6066 -1.0101,-23.2335 -7.071,-25.2538 -6.061,-2.0203 -38.2484,-5.0718 -50.3702,3.5145 z"
         id="path3296"
         inkscape:connector-curvature="0" />
      <path
         inkscape:connector-curvature="0"
         id="path3305"
         d="m 3251.1404,-2178.2729 c 0,0 12.1428,21.0714 67.1428,32.5 55,11.4286 125.7143,-38.2143 125.7143,-38.2143 l 38.7857,38.6429 c 0,0 -113.0714,25.6428 -150.2143,21 -37.1428,-4.6429 -81.4285,-50.3572 -81.4285,-50.3572"
         style="fill:#ffffff;stroke:#000000;stroke-width:2;stroke-linecap:butt;stroke-linejoin:miter;stroke-miterlimit:4;stroke-opacity:1;stroke-dasharray:none" />
      <path
         sodipodi:nodetypes="ccccc"
         inkscape:connector-curvature="0"
         id="path4099"
         d="m 3453.1169,-2166.1191 -30.2186,14.3667 6.8378,5.5184 29.9689,-14.0733 z"
         style="font-size:medium;font-style:normal;font-variant:normal;font-weight:normal;font-stretch:normal;text-indent:0;text-align:start;text-decoration:none;line-height:normal;letter-spacing:normal;word-spacing:normal;text-transform:none;direction:ltr;block-progression:tb;writing-mode:lr-tb;text-anchor:start;baseline-shift:baseline;color:#000000;fill:#008000;fill-opacity:1;fill-rule:nonzero;stroke:none;stroke-width:4;marker:none;visibility:visible;display:inline;overflow:visible;enable-background:accumulate;font-family:Sans;-inkscape-font-specification:Sans" />
      <path
         sodipodi:nodetypes="cacscacsc"
         inkscape:connector-curvature="0"
         id="path3303"
         d="m 3154.8351,-2149.0637 c 0,0 -6.1891,7.2925 -8.7928,11.2888 -2.8625,4.3936 -7.4472,13.8569 -7.4472,13.8569 0,0 49.8667,-24.0831 67.6065,-30.2972 18.2787,-6.4028 54.803,-21.7873 54.803,-21.7873 0,0 -3.8451,-1.8876 -5.9103,-2.3872 -3.1018,-0.7503 -9.5343,-0.868 -9.5343,-0.868 0,0 -25.7837,-0.1235 -42.8032,6.1343 -17.0196,6.2579 -47.9217,24.0597 -47.9217,24.0597 z"
         style="fill:#ffffff;stroke:#000000;stroke-width:2;stroke-linecap:butt;stroke-linejoin:miter;stroke-miterlimit:4;stroke-opacity:1;stroke-dasharray:none" />
      <path
         style="font-size:medium;font-style:normal;font-variant:normal;font-weight:normal;font-stretch:normal;text-indent:0;text-align:start;text-decoration:none;line-height:normal;letter-spacing:normal;word-spacing:normal;text-transform:none;direction:ltr;block-progression:tb;writing-mode:lr-tb;text-anchor:start;baseline-shift:baseline;color:#000000;fill:#008000;fill-opacity:1;fill-rule:nonzero;stroke:none;stroke-width:4;marker:none;visibility:visible;display:inline;overflow:visible;enable-background:accumulate;font-family:Sans;-inkscape-font-specification:Sans"
         d="m 3433.0379,-2169.2212 24.4739,22.8165 -8.1844,3.1976 -24.3243,-22.4616 z"
         id="path27241"
         inkscape:connector-curvature="0"
         sodipodi:nodetypes="ccccc" />
    </g>
    <g
       id="g10229"
       transform="translate(31.403024,6.4439689)">
      <g
         id="text4253"
         style="font-size:140.50161743px;font-style:normal;font-variant:normal;font-weight:bold;font-stretch:normal;line-height:125%;letter-spacing:0px;word-spacing:0px;fill:#000000;fill-opacity:1;stroke:none;font-family:FreeSans;-inkscape-font-specification:FreeSans Bold"
         transform="scale(1.066563,0.93759113)">
        <path
           id="path10219"
           style="font-family:Acme;-inkscape-font-specification:Acme Bold"
           d="m 2917.8887,-1930.8568 c -6.6505,0 -16.2514,-0.5152 -28.8029,-1.5455 l 1.6861,-34.1419 -1.6861,-62.8043 37.514,0 c 12.645,10e-5 22.527,3.7937 29.6458,11.3807 7.1187,7.5871 10.678,18.1247 10.6781,31.6128 -10e-5,17.0476 -4.4024,30.5826 -13.2071,40.605 -8.8049,9.9288 -20.7475,14.8932 -35.8279,14.8932 m 3.653,-83.3175 c -6.1821,10e-5 -10.5376,0.047 -13.0666,0.1405 l -1.4051,45.101 0.9836,22.7613 c 7.868,0.562 13.1602,0.843 15.8766,0.843 7.3997,0 13.2071,-2.9973 17.4222,-8.9921 4.3087,-5.9947 6.463,-14.7058 6.4631,-26.1333 -1e-4,-11.4274 -2.1076,-19.9043 -6.3226,-25.4308 -4.1214,-5.5263 -10.7718,-8.2895 -19.9512,-8.2896"
           inkscape:connector-curvature="0" />
        <path
           id="path10221"
           style="font-family:Acme;-inkscape-font-specification:Acme Bold"
           d="m 3002.3389,-2030.051 -1.967,61.1182 1.686,36.5305 -19.6702,0 1.686,-34.1419 -1.686,-59.9942 19.9512,-3.5126"
           inkscape:connector-curvature="0" />
        <path
           id="path10223"
           style="font-family:Acme;-inkscape-font-specification:Acme Bold"
           d="m 3074.2384,-2014.3148 -29.9268,0 -0.843,25.8523 26.8358,0 -1.5455,14.8932 -25.7118,0 -0.1405,4.6365 1.686,36.5305 -19.6703,0 1.6861,-34.1419 -1.6861,-62.8043 50.8616,0 -1.5455,15.0337"
           inkscape:connector-curvature="0" />
        <path
           id="path10225"
           style="font-family:Acme;-inkscape-font-specification:Acme Bold"
           d="m 3136.2567,-2014.3148 -29.9268,0 -0.843,25.8523 26.8358,0 -1.5456,14.8932 -25.7117,0 -0.1405,4.6365 1.686,36.5305 -19.6703,0 1.6861,-34.1419 -1.6861,-62.8043 50.8616,0 -1.5455,15.0337"
           inkscape:connector-curvature="0" />
        <path
           id="path10227"
           style="font-family:Acme;-inkscape-font-specification:Acme Bold"
           d="m 3177.4808,-1987.9005 1.686,0 10.3971,-19.1082 10.5376,-23.1828 17.1412,2.5291 -12.9261,23.4637 -18.2652,35.6874 1.5455,36.109 -19.6702,0 1.405,-33.7204 -17.7032,-35.9684 -13.4882,-24.5878 19.8107,-3.5126 9.1326,21.3563 10.3972,20.9347"
           inkscape:connector-curvature="0" />
      </g>
      <g
         id="text3010"
         style="font-size:62.54807663px;font-style:normal;font-variant:normal;font-weight:normal;font-stretch:normal;line-height:125%;letter-spacing:0px;word-spacing:0px;fill:#000000;fill-opacity:1;stroke:none;font-family:Acme;-inkscape-font-specification:Acme"
         transform="scale(1.1647576,0.85854772)">
        <path
           id="path10175"
           d="m 2645.5222,-2090.4097 0.688,-7.1931 29.7104,0 -0.688,7.1931 -10.8834,-0.9382 -0.2502,20.6408 0.7506,16.2625 -8.7568,0 0.7506,-15.1992 -0.2502,-21.6416 -11.071,0.8757"
           inkscape:connector-curvature="0" />
        <path
           id="path10177"
           d="m 2697.8329,-2070.2692 c 0,-2.8772 -0.2502,-4.7954 -0.7505,-5.7545 -0.5005,-0.959 -1.668,-1.4385 -3.5027,-1.4386 -1.8348,1e-4 -3.9197,0.7298 -6.2548,2.1892 l 0,4.566 0.688,14.6988 -8.444,1.5637 0.7506,-15.1992 -0.7506,-31.6493 8.5691,-1.5637 -0.8131,16.2 0,7.3181 c 0.6254,-0.834 1.3343,-1.6471 2.1266,-2.4394 0.7923,-0.7922 2.0224,-1.6888 3.6903,-2.6896 1.668,-1.0007 3.4401,-1.5011 5.3166,-1.5011 1.9181,0 3.5235,0.7506 4.8162,2.2517 1.2926,1.4595 1.939,3.461 1.939,6.0046 l -0.3753,7.0054 0.688,15.0116 -8.4439,1.5637 0.7505,-16.1374"
           inkscape:connector-curvature="0" />
        <path
           id="path10179"
           d="m 2723.6897,-2060.8245 c 1.2093,0 2.4811,-0.3127 3.8155,-0.9382 1.3343,-0.6255 2.3768,-1.251 3.1274,-1.8764 l 1.1258,-0.9383 2.8772,3.5027 c -0.417,0.7089 -1.0633,1.522 -1.939,2.4394 -0.8757,0.9174 -1.7722,1.7096 -2.6895,2.3768 -0.8757,0.6255 -2.0641,1.2093 -3.5653,1.7514 -1.4594,0.5004 -2.9814,0.7505 -4.566,0.7505 -3.3776,0 -6.1297,-1.2718 -8.2563,-3.8154 -2.1267,-2.5853 -3.19,-5.9003 -3.19,-9.9451 0,-5.0873 1.4803,-9.549 4.4409,-13.3853 2.9606,-3.8363 6.4216,-5.7544 10.383,-5.7544 3.044,0 5.4,0.8548 7.068,2.5644 1.7096,1.7097 2.5644,4.1074 2.5644,7.1931 0,1.8347 -0.3127,3.9197 -0.9382,6.2548 l -1.251,1.3135 -15.637,1.4386 c 0.7089,4.7119 2.9189,7.0679 6.6301,7.0679 m 0,-19.3899 c -1.8347,0 -3.3776,0.7506 -4.6285,2.2517 -1.251,1.4595 -1.9807,3.336 -2.1892,5.6294 l 10.6332,-1.3135 c 0.125,-0.9591 0.1876,-1.7514 0.1876,-2.3769 0,-2.7938 -1.3344,-4.1907 -4.0031,-4.1907"
           inkscape:connector-curvature="0" />
        <path
           id="path10181"
           d="m 2760.1934,-2097.9155 -0.6881,20.3907 15.9498,-20.2656 6.3799,4.2533 -14.3861,16.7003 15.2618,18.0764 -8.0062,5.0038 -15.2617,-21.579 -0.1251,4.6285 0.7506,16.2625 -8.7568,0 0.7506,-15.1992 -0.7506,-26.708 8.8819,-1.5637"
           inkscape:connector-curvature="0" />
        <path
           id="path10183"
           d="m 2793.6018,-2054.4446 c -2.2517,0 -4.0864,-0.7297 -5.5042,-2.1892 -1.376,-1.5011 -2.0641,-3.461 -2.0641,-5.8795 l 0.3753,-7.193 -0.688,-15.0115 8.3814,-1.5638 -0.8131,19.0147 c 0,1.793 0.3127,3.1065 0.9382,3.9405 0.6672,0.834 1.7097,1.251 3.1274,1.251 1.4178,0 3.3776,-0.7089 5.8796,-2.1267 l 0,-3.7529 -0.6881,-16.4501 8.444,-1.5637 -0.7506,15.637 0.063,5.129 c 0,2.6687 0.688,5.3582 2.0641,8.0687 l -6.505,2.8772 c -1.3761,-2.7104 -2.2101,-4.8788 -2.502,-6.505 -3.7529,4.2115 -7.0053,6.3173 -9.7575,6.3173"
           inkscape:connector-curvature="0" />
        <path
           id="path10185"
           d="m 2836.1199,-2070.2692 c 0,-2.8772 -0.2502,-4.7954 -0.7506,-5.7545 -0.5004,-0.959 -1.668,-1.4385 -3.5027,-1.4386 -1.8347,1e-4 -3.9197,0.7298 -6.2548,2.1892 l 0,4.566 0.688,14.6988 -8.3814,1.5637 0.7506,-15.1992 c -0.1668,-5.5876 -0.6255,-10.5914 -1.3761,-15.0115 l 7.5683,-1.6263 c 0.2919,2.4186 0.5004,4.7746 0.6255,7.068 0.6255,-0.834 1.3344,-1.6471 2.1266,-2.4394 0.7923,-0.8339 2.0433,-1.7513 3.7529,-2.7521 1.7097,-1.0424 3.5027,-1.5637 5.3792,-1.5637 1.9181,0 3.5235,0.7506 4.8162,2.2517 1.2926,1.4595 1.9389,3.461 1.939,6.0046 l -0.3753,7.0054 0.688,15.0116 -8.444,1.5637 0.7506,-16.1374"
           inkscape:connector-curvature="0" />
        <path
           id="path10187"
           d="m 2848.5318,-2048.2523 c 0,-3.6695 3.4193,-6.5467 10.2579,-8.6317 -1.6263,-0.8339 -2.4394,-1.9181 -2.4394,-3.2525 0,-0.542 0.2085,-1.0841 0.6255,-1.6262 0.4169,-0.5421 1.0216,-1.105 1.8139,-1.6888 l 0,-0.5004 c -3.0024,0 -5.4,-0.834 -7.1931,-2.5019 -1.7513,-1.6679 -2.627,-3.8988 -2.627,-6.6927 0,-3.6277 1.4803,-6.776 4.4409,-9.4447 2.9606,-2.7104 6.4633,-4.0656 10.5081,-4.0656 1.0425,0 2.5645,0.2085 4.566,0.6254 2.0015,0.4171 3.9614,0.6256 5.8795,0.6255 l 4.8162,0 -0.6254,5.4417 -4.6912,-0.5629 c 0.417,1.2093 0.6255,2.5853 0.6255,4.1281 0,1.5429 -0.3753,3.0858 -1.1258,4.6286 -0.7089,1.5012 -1.5846,2.7104 -2.6271,3.6278 -1.0007,0.9174 -2.0224,1.7305 -3.0648,2.4394 -1.0008,0.6672 -1.8765,1.2718 -2.627,1.8139 -0.7089,0.5004 -1.0634,0.959 -1.0633,1.376 -1e-4,0.7923 0.8339,1.4803 2.5019,2.0641 4.42,1.7931 7.4015,3.3151 8.9443,4.566 1.5846,1.251 2.3768,2.7938 2.3769,4.6286 -10e-5,3.0857 -1.5638,5.6084 -4.6911,7.5683 -3.0858,2.0015 -6.7761,3.0023 -11.071,3.0023 -4.295,0 -7.6309,-0.688 -10.0077,-2.0641 -2.3352,-1.3761 -3.5027,-3.2108 -3.5027,-5.5042 m 18.8895,-26.2702 c 0,-2.0432 -0.4587,-3.5444 -1.3761,-4.5035 -0.9174,-0.959 -2.356,-1.4386 -4.3158,-1.4386 -3.7946,0 -5.6919,1.8765 -5.6919,5.6293 0,3.7112 2.0224,5.5668 6.0672,5.5668 3.5444,0 5.3166,-1.7513 5.3166,-5.254 m 2.2517,24.2061 c 0,-0.7506 -0.3961,-1.4595 -1.1884,-2.1266 -0.7923,-0.6255 -2.21,-1.3761 -4.2533,-2.2518 -3.044,0.834 -5.1498,1.6054 -6.3173,2.3143 -1.1259,0.7089 -1.6888,1.5846 -1.6888,2.627 0,1.0425 0.5629,1.8765 1.6888,2.5019 1.1675,0.6672 2.7729,1.0008 4.8162,1.0008 2.0432,0 3.7112,-0.3753 5.0038,-1.1258 1.2927,-0.7506 1.939,-1.7305 1.939,-2.9398"
           inkscape:connector-curvature="0" />
        <path
           id="path10189"
           d="m 2915.4651,-2090.9101 -13.3228,0 -0.3753,11.5088 11.9467,0 -0.688,6.6301 -11.4463,0 -0.063,2.0641 0.7506,16.2625 -8.7567,0 0.7506,-15.1992 -0.7506,-27.959 22.6424,0 -0.688,6.6927"
           inkscape:connector-curvature="0" />
        <path
           id="path10191"
           d="m 2927.2495,-2054.4446 c -2.2517,0 -4.0865,-0.7297 -5.5042,-2.1892 -1.3761,-1.5011 -2.0641,-3.461 -2.0641,-5.8795 l 0.3753,-7.193 -0.6881,-15.0115 8.3815,-1.5638 -0.8131,19.0147 c -10e-5,1.793 0.3127,3.1065 0.9382,3.9405 0.6671,0.834 1.7096,1.251 3.1274,1.251 1.4177,0 3.3776,-0.7089 5.8795,-2.1267 l 0,-3.7529 -0.688,-16.4501 8.444,-1.5637 -0.7506,15.637 0.063,5.129 c 0,2.6687 0.688,5.3582 2.0641,8.0687 l -6.505,2.8772 c -1.3761,-2.7104 -2.21,-4.8788 -2.5019,-6.505 -3.7529,4.2115 -7.0054,6.3173 -9.7575,6.3173"
           inkscape:connector-curvature="0" />
      </g>
      <g
         id="text3016"
         style="font-size:55.5345993px;font-style:normal;font-variant:normal;font-weight:normal;font-stretch:normal;line-height:125%;letter-spacing:0px;word-spacing:0px;fill:#000000;fill-opacity:1;stroke:none;font-family:Acme;-inkscape-font-specification:Acme"
         transform="scale(1.0640965,0.93976441)">
        <path
           id="path10194"
           d="m 2910.1662,-1832.5692 -3.1655,0 0,0.3332 0.6664,14.439 -7.4416,0 0.6664,-13.4949 -0.6664,-24.8239 12.051,0 c 3.5542,0 6.3864,0.9626 8.4968,2.8878 2.1103,1.9252 3.1654,4.4798 3.1655,7.6637 -10e-5,2.4066 -0.6295,4.6094 -1.8882,6.6087 -1.2218,1.9622 -2.8878,3.5172 -4.9981,4.6649 l 9.663,13.6615 -6.7197,3.4431 -8.6634,-15.4386 c -0.2592,0.037 -0.6479,0.056 -1.1662,0.056 m 0.111,-17.9376 -2.7212,0 -0.3887,12.5508 3.7764,0 c 1.8511,0 3.2765,-0.6109 4.2761,-1.8327 1.0366,-1.2217 1.555,-2.9618 1.555,-5.2202 0,-3.6653 -2.1659,-5.4979 -6.4976,-5.4979"
           inkscape:connector-curvature="0" />
        <path
           id="path10196"
           d="m 2941.1059,-1823.4615 c 1.0736,0 2.2028,-0.2777 3.3876,-0.833 1.1847,-0.5553 2.1103,-1.1107 2.7767,-1.666 l 0.9997,-0.8331 2.5545,3.11 c -0.3702,0.6294 -0.9441,1.3513 -1.7215,2.1658 -0.7775,0.8145 -1.5735,1.518 -2.388,2.1103 -0.7775,0.5554 -1.8327,1.0737 -3.1655,1.555 -1.2958,0.4443 -2.6471,0.6664 -4.054,0.6664 -2.9989,0 -5.4424,-1.1292 -7.3306,-3.3876 -1.8882,-2.2954 -2.8322,-5.2387 -2.8322,-8.83 0,-4.5168 1.3143,-8.4783 3.9429,-11.8844 2.6286,-3.4061 5.7016,-5.1092 9.2188,-5.1092 2.7026,0 4.7944,0.759 6.2754,2.2769 1.5179,1.518 2.2769,3.6468 2.2769,6.3865 0,1.6291 -0.2777,3.4802 -0.833,5.5535 l -1.1107,1.1662 -13.8837,1.2773 c 0.6294,4.1836 2.5916,6.2754 5.8867,6.2754 m 0,-17.2157 c -1.629,0 -2.9989,0.6664 -4.1096,1.9992 -1.1107,1.2959 -1.7586,2.9619 -1.9437,4.9981 l 9.4409,-1.1662 c 0.1111,-0.8515 0.1666,-1.5549 0.1666,-2.1103 0,-2.4805 -1.1847,-3.7208 -3.5542,-3.7208"
           inkscape:connector-curvature="0" />
        <path
           id="path10198"
           d="m 2965.2808,-1824.7388 0.7219,0 1.8327,-7.6082 2.9989,-13.7171 6.8862,0.833 -4.165,13.7726 -3.4987,12.9951 -9.4964,0.833 -3.2766,-13.4949 -3.9985,-13.4949 7.5527,-1.3883 2.388,12.2176 2.0548,9.0521"
           inkscape:connector-curvature="0" />
        <path
           id="path10200"
           d="m 2988.8795,-1846.0641 -0.6664,13.8281 0.6109,13.0507 -7.4416,1.3883 0.6664,-13.4949 -0.6109,-13.3838 7.4416,-1.3884 m -7.8303,-8.108 c 0,-1.2588 0.4812,-2.3695 1.4439,-3.3321 0.9625,-0.9996 2.0732,-1.4994 3.332,-1.4994 1.2588,0 2.2214,0.3517 2.8878,1.0551 0.6664,0.6665 0.9996,1.6846 0.9997,3.0544 -10e-5,1.3699 -0.4814,2.5547 -1.4439,3.5542 -0.9256,0.9627 -2.0178,1.444 -3.2766,1.4439 -1.2218,10e-5 -2.1844,-0.4072 -2.8878,-1.2217 -0.7034,-0.8145 -1.0551,-1.8326 -1.0551,-3.0544"
           inkscape:connector-curvature="0" />
        <path
           id="path10202"
           d="m 3004.9924,-1823.4615 c 1.0736,0 2.2028,-0.2777 3.3876,-0.833 1.1847,-0.5553 2.1103,-1.1107 2.7767,-1.666 l 0.9996,-0.8331 2.5546,3.11 c -0.3702,0.6294 -0.9441,1.3513 -1.7215,2.1658 -0.7775,0.8145 -1.5735,1.518 -2.388,2.1103 -0.7775,0.5554 -1.8327,1.0737 -3.1655,1.555 -1.2958,0.4443 -2.6472,0.6664 -4.054,0.6664 -2.9989,0 -5.4424,-1.1292 -7.3306,-3.3876 -1.8882,-2.2954 -2.8323,-5.2387 -2.8323,-8.83 0,-4.5168 1.3144,-8.4783 3.943,-11.8844 2.6286,-3.4061 5.7015,-5.1092 9.2187,-5.1092 2.7027,0 4.7945,0.759 6.2754,2.2769 1.518,1.518 2.2769,3.6468 2.277,6.3865 -1e-4,1.6291 -0.2777,3.4802 -0.8331,5.5535 l -1.1106,1.1662 -13.8837,1.2773 c 0.6294,4.1836 2.5916,6.2754 5.8867,6.2754 m 0,-17.2157 c -1.6291,0 -2.9989,0.6664 -4.1096,1.9992 -1.1107,1.2959 -1.7586,2.9619 -1.9437,4.9981 l 9.4409,-1.1662 c 0.111,-0.8515 0.1666,-1.5549 0.1666,-2.1103 0,-2.4805 -1.1848,-3.7208 -3.5542,-3.7208"
           inkscape:connector-curvature="0" />
        <path
           id="path10204"
           d="m 3044.4948,-1824.7388 0.722,0 1.7771,-7.6082 2.8878,-13.7171 6.7752,0.833 -4.054,13.7726 -3.3876,12.9951 -9.1077,0.833 -3.0544,-13.4949 -0.2777,-0.8885 -3.7208,13.5504 -8.83,0.833 -3.221,-13.4949 -3.8319,-13.4949 7.275,-1.3883 2.277,12.2176 1.9992,9.0521 0.7219,0 4.776,-15.8273 -1.1662,-4.0541 7.164,-1.3883 2.3324,12.2176 1.9437,9.0521"
           inkscape:connector-curvature="0" />
        <path
           id="path10206"
           d="m 3081.9121,-1817.1861 c -4.1095,0 -7.5712,-1.7216 -10.3849,-5.1647 -2.8138,-3.4431 -4.2207,-7.6638 -4.2207,-12.6619 0,-6.1088 1.6846,-11.255 5.0537,-15.4386 3.4061,-4.1836 7.5712,-6.2754 12.4953,-6.2754 1.9251,0 3.7022,0.2037 5.3313,0.6109 1.666,0.3702 2.8507,0.759 3.5542,1.1662 l 0.9996,0.6109 -3.7763,7.7193 c -0.8516,-0.7404 -2.0548,-1.4254 -3.6098,-2.0548 -1.555,-0.6664 -2.9618,-0.9996 -4.2206,-0.9996 -2.5546,0 -4.6094,1.0552 -6.1644,3.1655 -1.5179,2.1103 -2.2769,5.1277 -2.2769,9.0521 0,3.8874 0.796,7.0899 2.388,9.6075 1.592,2.4805 3.7578,3.7208 6.4976,3.7208 1.7771,0 3.3876,-0.5553 4.8315,-1.666 1.4438,-1.1107 2.462,-2.5916 3.0544,-4.4428 l 4.6093,2.6656 c -1.2217,3.2581 -3.0914,5.8127 -5.6089,7.6638 -2.5176,1.8142 -5.3684,2.7212 -8.5524,2.7212"
           inkscape:connector-curvature="0" />
        <path
           id="path10208"
           d="m 3106.1131,-1817.797 c -1.9993,0 -3.6283,-0.6479 -4.8871,-1.9437 -1.2217,-1.3328 -1.8326,-3.0729 -1.8326,-5.2202 l 0.3332,-6.3865 -0.6109,-13.3283 7.4416,-1.3884 -0.7219,16.8825 c 0,1.592 0.2777,2.7583 0.833,3.4987 0.5924,0.7405 1.5179,1.1107 2.7767,1.1107 1.2588,0 2.9989,-0.6294 5.2203,-1.8882 l 0,-3.332 -0.6109,-14.6056 7.4972,-1.3884 -0.6664,13.8837 0.055,4.5538 c 0,2.3695 0.6109,4.7575 1.8326,7.164 l -5.7756,2.5545 c -1.2217,-2.4065 -1.9622,-4.3317 -2.2213,-5.7756 -3.3321,3.7394 -6.2199,5.609 -8.6634,5.609"
           inkscape:connector-curvature="0" />
        <path
           id="path10210"
           d="m 3137.3105,-1839.1778 c -1.629,0 -2.8878,0.5924 -3.7764,1.7771 -0.8885,1.1478 -1.3328,2.9249 -1.3328,5.3313 0,2.4066 0.4443,4.3503 1.3328,5.8312 0.9256,1.4439 2.2584,2.1658 3.9985,2.1658 0.8886,0 1.7586,-0.2776 2.6102,-0.833 0.8515,-0.5553 1.4994,-1.1107 1.9437,-1.666 l 0.6109,-0.8886 2.7767,2.8878 c -0.1111,0.1851 -0.2592,0.4443 -0.4443,0.7775 -0.1481,0.3332 -0.5554,0.9256 -1.2218,1.7771 -0.6294,0.8515 -1.3143,1.6105 -2.0547,2.2769 -0.7035,0.6294 -1.6291,1.2218 -2.7768,1.7771 -1.1477,0.5184 -2.3509,0.7775 -3.6097,0.7775 -2.7768,0 -5.0352,-1.1292 -6.7752,-3.3876 -1.7401,-2.2584 -2.6102,-5.2017 -2.6102,-8.83 0,-4.5168 1.3144,-8.4783 3.943,-11.8844 2.6286,-3.4061 5.7015,-5.1092 9.2187,-5.1092 1.0737,0 2.1474,0.1667 3.221,0.4998 1.0737,0.2962 2.1659,0.7775 3.2766,1.4439 l -3.8874,6.8308 c -1.3329,-1.0366 -2.8138,-1.555 -4.4428,-1.555"
           inkscape:connector-curvature="0" />
        <path
           id="path10212"
           d="m 3166.4532,-1817.2416 -10.4406,-15.3831 0,0.3887 0.6109,13.0507 -7.4971,1.3883 0.6664,-13.4949 -0.6664,-28.1005 7.6082,-1.3883 -0.722,26.8232 11.107,-12.1621 5.2202,3.5542 -9.7185,9.1077 10.1628,11.9955 -6.3309,4.2206"
           inkscape:connector-curvature="0" />
        <path
           id="path10214"
           d="m 3174.2514,-1829.4037 c 0,-4.7389 1.2773,-8.7559 3.8319,-12.051 2.5546,-3.295 5.5349,-4.9426 8.9411,-4.9426 3.4431,0 6.1088,1.1107 7.997,3.3321 1.9251,2.2214 2.8877,5.1647 2.8877,8.83 0,4.8871 -1.2402,8.9596 -3.7208,12.2176 -2.4435,3.221 -5.5349,4.8315 -9.2742,4.8315 -3.073,0 -5.6276,-1.1477 -7.6638,-3.4431 -1.9993,-2.3325 -2.9989,-5.2573 -2.9989,-8.7745 m 17.4379,-1.9437 c 0,-5.3683 -1.8327,-8.0525 -5.498,-8.0525 -3.8133,0 -5.72,2.5176 -5.72,7.5527 0,2.6286 0.5368,4.6834 1.6105,6.1643 1.0736,1.481 2.4805,2.2214 4.2206,2.2214 1.7771,0 3.1099,-0.6664 3.9985,-1.9992 0.9256,-1.3699 1.3884,-3.3321 1.3884,-5.8867"
           inkscape:connector-curvature="0" />
        <path
           id="path10216"
           d="m 3201.0425,-1829.4037 c 0,-4.7389 1.2773,-8.7559 3.8319,-12.051 2.5546,-3.295 5.5349,-4.9426 8.9411,-4.9426 3.4431,0 6.1088,1.1107 7.997,3.3321 1.9251,2.2214 2.8877,5.1647 2.8878,8.83 -10e-5,4.8871 -1.2403,8.9596 -3.7209,12.2176 -2.4435,3.221 -5.5349,4.8315 -9.2742,4.8315 -3.073,0 -5.6276,-1.1477 -7.6638,-3.4431 -1.9993,-2.3325 -2.9989,-5.2573 -2.9989,-8.7745 m 17.4379,-1.9437 c 0,-5.3683 -1.8327,-8.0525 -5.4979,-8.0525 -3.8134,0 -5.7201,2.5176 -5.7201,7.5527 0,2.6286 0.5368,4.6834 1.6105,6.1643 1.0737,1.481 2.4805,2.2214 4.2206,2.2214 1.7771,0 3.1099,-0.6664 3.9985,-1.9992 0.9256,-1.3699 1.3884,-3.3321 1.3884,-5.8867"
           inkscape:connector-curvature="0" />
      </g>
    </g>
  </g>
</svg>
