<?xml version="1.0" encoding="UTF-8" standalone="no"?>
<!-- Created with Inkscape (http://www.inkscape.org/) -->

<svg
   xmlns:dc="http://purl.org/dc/elements/1.1/"
   xmlns:cc="http://creativecommons.org/ns#"
   xmlns:rdf="http://www.w3.org/1999/02/22-rdf-syntax-ns#"
   xmlns:svg="http://www.w3.org/2000/svg"
   xmlns="http://www.w3.org/2000/svg"
   xmlns:sodipodi="http://sodipodi.sourceforge.net/DTD/sodipodi-0.dtd"
   xmlns:inkscape="http://www.inkscape.org/namespaces/inkscape"
   width="600.06732"
   height="558.20709"
   id="svg2"
   version="1.1"
   inkscape:version="0.48.3.1 r9886"
   sodipodi:docname="diffy.svg"
   inkscape:export-filename="/home/sarah/art/diffy.png"
   inkscape:export-xdpi="500"
   inkscape:export-ydpi="500">
  <defs
     id="defs4" />
  <sodipodi:namedview
     id="base"
     pagecolor="#ffffff"
     bordercolor="#666666"
     borderopacity="1.0"
     inkscape:pageopacity="0.0"
     inkscape:pageshadow="2"
     inkscape:zoom="0.66618777"
     inkscape:cx="300.03365"
     inkscape:cy="258.35521"
     inkscape:document-units="px"
     inkscape:current-layer="g10119"
     showgrid="false"
     inkscape:window-width="1366"
     inkscape:window-height="744"
     inkscape:window-x="0"
     inkscape:window-y="24"
     inkscape:window-maximized="1"
     fit-margin-top="0"
     fit-margin-left="0"
     fit-margin-right="0"
     fit-margin-bottom="0" />
  <metadata
     id="metadata7">
    <rdf:RDF>
      <cc:Work
         rdf:about="">
        <dc:format>image/svg+xml</dc:format>
        <dc:type
           rdf:resource="http://purl.org/dc/dcmitype/StillImage" />
        <dc:title></dc:title>
      </cc:Work>
    </rdf:RDF>
  </metadata>
  <g
     inkscape:label="Layer 1"
     inkscape:groupmode="layer"
     id="layer1"
     transform="translate(-3069.8852,2251.5084)">
    <text
       xml:space="preserve"
       style="font-size:51.65934372px;font-style:normal;font-variant:normal;font-weight:bold;font-stretch:normal;text-align:end;line-height:125%;letter-spacing:0px;word-spacing:0px;text-anchor:end;fill:#000000;fill-opacity:1;stroke:none;font-family:FreeSans;-inkscape-font-specification:FreeSans Bold"
       x="475.83173"
       y="900.47076"
       id="text4257"
       sodipodi:linespacing="125%"
       transform="scale(1.1411753,0.87628955)"><tspan
         sodipodi:role="line"
         x="475.83173"
         y="900.47076"
         style="font-style:normal;font-variant:normal;font-weight:bold;font-stretch:normal;text-align:end;text-anchor:end;font-family:Acme;-inkscape-font-specification:Acme Bold"
         id="tspan3008" /></text>
    <flowRoot
       xml:space="preserve"
       id="flowRoot4263"
       style="font-size:12px;font-style:normal;font-weight:normal;line-height:125%;letter-spacing:0px;word-spacing:0px;fill:#000000;fill-opacity:1;stroke:none;font-family:Sans"><flowRegion
         id="flowRegion4265"><rect
           id="rect4267"
           width="313.14728"
           height="343.45187"
           x="-335.37064"
           y="205.85435" /></flowRegion><flowPara
         id="flowPara4269" /></flowRoot>    <g
       id="g10119"
       transform="matrix(0.99201906,-0.12608805,0.12608805,0.99201906,273.85438,408.58042)">
      <path
         sodipodi:nodetypes="csccscac"
         inkscape:connector-curvature="0"
         id="path4130"
         d="m 3378.9965,-2206.2972 c 0,0 13.4039,-8.8398 27.0022,-17.1718 13.5984,-8.3319 22.2322,-21.276 22.2322,-21.276 l 34.2799,28.1467 c 0,0 -16.0641,15.553 -24.7742,21.6893 -3.709,2.6129 -10.9463,9.1577 -10.9463,9.1577 0,0 -14.3617,-10.0769 -22.3623,-13.5225 -8.0773,-3.4786 -25.4315,-7.0234 -25.4315,-7.0234 z"
         style="fill:#ffffff;stroke:#000000;stroke-width:2;stroke-linecap:butt;stroke-linejoin:miter;stroke-miterlimit:4;stroke-opacity:1;stroke-dasharray:none" />
      <path
         sodipodi:nodetypes="cac"
         inkscape:connector-curvature="0"
         d="m 3414.7387,-2204.9828 c 0,0 8.2233,-5.8571 11.9326,-9.2622 3.8224,-3.5089 10.5596,-11.437 10.5596,-11.437"
         style="fill:#ffffff;stroke:#ff0000;stroke-width:8.97858429;stroke-linecap:butt;stroke-linejoin:miter;stroke-miterlimit:4;stroke-opacity:1;stroke-dasharray:none"
         id="path4185" />
      <path
         sodipodi:nodetypes="cascacsc"
         inkscape:connector-curvature="0"
         id="path3307"
         d="m 3247.6516,-2171.4037 c 0,0 4.3348,-19.2835 10.7071,-26.2701 7.4284,-8.1446 19.072,-14.1542 29.3495,-15.24 27.8177,-2.9386 63.2371,6.1908 63.2371,6.1908 0,0 -30.8042,0.7262 -45.6022,4.5134 -5.1922,1.3289 -14.7941,6.2977 -14.7941,6.2977 0,0 -16.1166,0.8374 -29.8971,12.0927 -13.7804,11.2552 -3.0344,9.7831 -3.0344,9.7831"
         style="fill:#ffffff;stroke:#000000;stroke-width:2;stroke-linecap:butt;stroke-linejoin:miter;stroke-miterlimit:4;stroke-opacity:1;stroke-dasharray:none" />
      <path
         sodipodi:nodetypes="ccsccscscccccscc"
         inkscape:connector-curvature="0"
         id="path3011"
         d="m 3332.9985,-2012.4352 -20.0742,24.9886 c 0,0 -16.3479,-5.082 -40.3255,4.9725 -23.9776,10.0546 -39.2193,26.4042 -39.2193,26.4042 l 7.8897,-0.7975 c 0,0 20.4818,-14.4371 31.9614,-17.1294 11.4796,-2.6923 23.6197,-2.8388 23.6197,-2.8388 0,0 -25.492,10.0264 -30.7497,12.3759 -6.2584,2.7968 -15.0874,9.199 -15.0874,9.199 l 10.4761,-0.2965 c 17.6867,-7.2528 41.3221,-16.0187 59.9685,-15.047 15.5919,1.1274 33.9405,16.7543 33.9405,16.7543 l -3.8165,-9.9895 c 0,0 -10.8307,-8.1932 -16.3866,-13.7491 -5.5558,-5.5558 17.5848,-25.8193 17.5848,-25.8193 -14.3098,-2.8351 -2.1172,-7.9424 -19.7815,-9.0274 z"
         style="fill:#ffff00;stroke:#000000;stroke-width:2;stroke-linecap:butt;stroke-linejoin:miter;stroke-miterlimit:4;stroke-opacity:1;stroke-dasharray:none" />
      <path
         style="fill:#ffff00;stroke:#000000;stroke-width:2;stroke-linecap:butt;stroke-linejoin:miter;stroke-miterlimit:4;stroke-opacity:1;stroke-dasharray:none"
         d="m 3397.9929,-1984.0461 -15.5774,33.0846 c 0,0 -14.4499,-2.2165 -39.5097,4.7139 -25.0597,6.9303 -44.9575,20.0476 -44.9575,20.0476 l 10.5706,1.822 c 0,0 19.7276,-11.1182 30.516,-14.1955 7.747,-2.2097 23.9934,-2.9008 23.9934,-2.9008 0,0 -20.2687,6.6869 -30.057,10.9033 -5.4067,2.329 -15.7817,7.9273 -15.7817,7.9273 l 10.8391,1.5269 c 0,0 31.056,-11.8625 47.4047,-13.3504 11.1103,-1.0112 11.8331,-2.962 33.324,3.1079 10.0509,2.8388 16.3928,6.252 16.3928,6.252 l -3.3122,-5.8696 c 0,0 -5.3909,-4.5711 -8.2712,-6.6111 -3.5982,-2.5484 -11.2202,-7.0059 -11.2202,-7.0059 l 15.4484,-30.858 c -13.3255,-5.9362 -2.8177,-3.6211 -19.8021,-8.5942 z"
         id="path3013"
         inkscape:connector-curvature="0"
         sodipodi:nodetypes="ccsccacaccasccaccc" />
      <path
         sodipodi:nodetypes="aaczsccsssca"
         inkscape:connector-curvature="0"
         id="path3014"
         d="m 3138.8926,-2124.2277 c 9.8375,-20.5358 27.6337,-38.9533 48.4705,-48.136 22.7321,-10.018 51.1582,-10.0879 74.4382,-3.5941 7.6944,6.5 10.3115,-17.1804 46.9059,-27.4208 36.5944,-10.2403 91.6429,-6.509 142.1505,22.7854 54.0494,31.3487 -23.7386,41.9213 -8.0812,94.4492 32.3844,113.578 -63.1345,101.5204 -63.1345,101.5204 0,0 -25.2539,-16.1625 -35.3554,-17.1726 -10.1015,-1.0102 -46.6429,-25.1251 -68.8662,-28.6607 -22.2234,-3.5355 -36.9003,18.6222 -107.991,-9.9282 -24.3178,-9.7661 -33.8401,-33.335 -33.8401,-33.335 0,0 -2.0102,-35.2405 5.3033,-50.5076 z"
         style="fill:#0000ff;stroke:#000000;stroke-width:2;stroke-linecap:butt;stroke-linejoin:miter;stroke-miterlimit:4;stroke-opacity:1;stroke-dasharray:none" />
      <path
         sodipodi:nodetypes="cssscscsac"
         inkscape:connector-curvature="0"
         id="path3028"
         d="m 3179.7636,-2035.4822 c 0,0 33.988,-7.9036 57.2215,-14.9746 23.2335,-7.0711 36.1637,-43.7474 71.519,-48.7981 35.3554,-5.0508 68.528,22.1624 80.6498,47.4162 12.1218,25.2539 50.6701,55.6193 50.6701,55.6193 0,0 1.0101,11.1117 -14.1422,18.1828 -15.1522,7.0711 -10.4989,7.6628 -10.4989,7.6628 0,0 -43.1103,-11.4139 -62.396,-21.4139 -19.2857,-10 -61.236,-23.044 -92.9377,-30.7963 -26.2653,-6.4228 -35.0334,2.5255 -80.0856,-12.8982 z"
         style="fill:#ff6600;stroke:#000000;stroke-width:2;stroke-linecap:butt;stroke-linejoin:miter;stroke-miterlimit:4;stroke-opacity:1;stroke-dasharray:none" />
      <path
         sodipodi:nodetypes="cscccccscc"
         inkscape:connector-curvature="0"
         id="path3009"
         d="m 3470.1209,-2002.8128 c 0,0 13.8937,99.0002 33.6829,157.8517 19.7893,58.8514 78.4464,180.4742 78.4464,180.4742 l 28.1031,-31.8521 -52.5625,-109.7203 60.5152,95.9016 26.0124,-35.7271 c 0,0 -70.663,-88.4878 -93.8954,-140.4597 -23.2324,-51.9718 -37.4945,-152.9082 -37.4945,-152.9082 z"
         style="fill:#0000ff;fill-opacity:1;stroke:#000000;stroke-width:2;stroke-linecap:butt;stroke-linejoin:miter;stroke-miterlimit:4;stroke-opacity:1;stroke-dasharray:none" />
      <path
         sodipodi:nodetypes="csscsccccccccccsc"
         inkscape:connector-curvature="0"
         id="path3016"
         d="m 3359.2154,-2191.502 c 0,0 -40.7142,5 -57.1428,42.1428 -16.4286,37.1429 50.7143,115.7143 60.7143,132.1429 10,16.4286 24.2857,38.5714 24.2857,38.5714 0,0 47.6766,32.0335 82.9062,53.8444 32.6567,20.2179 65.2266,33.1109 65.2266,33.1109 0,0 1.1687,-0.4937 7.0265,-19.1963 -12.1218,-21.7183 -38.3216,-53.2543 -54.5036,-69.192 24.2792,14.1167 43.346,28.1254 60.1041,56.5482 0,0 4.9588,-21.3916 6.5659,-30.7894 -3.0357,-9.5763 -47.4771,-56.5685 -47.4771,-56.5685 20.5517,8.7613 33.7508,23.0255 50.0892,44.7732 0,0 3.3263,-21.5598 3.8366,-32.9472 -2.5253,-6.566 -33.7228,-35.0595 -33.7228,-35.0595 13.1654,6.6374 19.714,11.0661 34.4127,24.0476 0,0 -3.0357,-60.7142 -66.6072,-130.7142 -63.5714,-70 -135.7143,-50.7143 -135.7143,-50.7143 z"
         style="fill:#000080;stroke:#000000;stroke-width:2;stroke-linecap:butt;stroke-linejoin:miter;stroke-miterlimit:4;stroke-opacity:1;stroke-dasharray:none" />
      <g
         transform="translate(2935.644,-2513.1499)"
         id="g3138">
        <path
           style="fill:#ff0000;stroke:#000000;stroke-width:2;stroke-linecap:butt;stroke-linejoin:miter;stroke-miterlimit:4;stroke-opacity:1;stroke-dasharray:none"
           d="m 337.66259,394.0585 c 0,0 -28.86328,-30.61257 -60.78781,-25.80202 -31.92454,4.81054 -41.10831,33.67382 -39.79634,39.79633 1.31197,6.12252 13.557,11.80771 22.30345,15.74361 8.74644,3.9359 32.79917,-0.43732 45.48152,-6.55984 12.68235,-6.12251 32.79918,-23.17808 32.79918,-23.17808 z"
           id="path3022"
           inkscape:connector-curvature="0" />
        <path
           style="fill:#ffff00;fill-opacity:1;stroke:#000000;stroke-width:3;stroke-miterlimit:4"
           d="m 286.65383,372.49887 c 12.50235,2.18615 20.86528,14.09354 18.67912,26.59589 -2.18615,12.50234 -14.09354,20.86527 -26.59589,18.67911 -12.50235,-2.18616 -20.86528,-14.09354 -18.67912,-26.59588 z"
           id="path3024"
           inkscape:connector-curvature="0"
           sodipodi:nodetypes="csscc" />
        <path
           sodipodi:type="arc"
           style="fill:#000000;fill-opacity:1;stroke:none"
           id="path3026"
           sodipodi:cx="229.64285"
           sodipodi:cy="403.79074"
           sodipodi:rx="8.2142859"
           sodipodi:ry="8.2142859"
           d="m 237.85714,403.79074 c 0,4.53663 -3.67766,8.21429 -8.21429,8.21429 -4.53662,0 -8.21428,-3.67766 -8.21428,-8.21429 0,-4.53662 3.67766,-8.21428 8.21428,-8.21428 4.53663,0 8.21429,3.67766 8.21429,8.21428 z"
           transform="matrix(1.5694327,0,0,1.5694327,-85.566867,-233.30737)" />
      </g>
      <path
         sodipodi:nodetypes="cssssssc"
         style="fill:#ffff00;stroke:#000000;stroke-width:2;stroke-linecap:butt;stroke-linejoin:miter;stroke-miterlimit:4;stroke-opacity:1;stroke-dasharray:none"
         d="m 3110.2692,-2103.8575 c -32.3249,20.7081 -31.4522,56.0845 -27.4116,60.6301 4.0406,4.5457 8.0812,1.0102 15.6574,-1.5152 7.5761,-2.5254 26.2639,-10.1015 42.4264,-11.1117 16.1624,-1.0101 21.2132,3.0305 23.7386,-0.505 2.5254,-3.5356 4.0406,-15.1523 3.0304,-25.7589 -1.0101,-10.6066 -1.0101,-23.2335 -7.071,-25.2538 -6.061,-2.0203 -38.2484,-5.0718 -50.3702,3.5145 z"
         id="path3296"
         inkscape:connector-curvature="0" />
      <path
         inkscape:connector-curvature="0"
         id="path3305"
         d="m 3251.1404,-2178.2729 c 0,0 12.1428,21.0714 67.1428,32.5 55,11.4286 125.7143,-38.2143 125.7143,-38.2143 l 38.7857,38.6429 c 0,0 -113.0714,25.6428 -150.2143,21 -37.1428,-4.6429 -81.4285,-50.3572 -81.4285,-50.3572"
         style="fill:#ffffff;stroke:#000000;stroke-width:2;stroke-linecap:butt;stroke-linejoin:miter;stroke-miterlimit:4;stroke-opacity:1;stroke-dasharray:none" />
      <path
         sodipodi:nodetypes="ccccc"
         inkscape:connector-curvature="0"
         id="path4099"
         d="m 3453.1169,-2166.1191 -30.2186,14.3667 6.8378,5.5184 29.9689,-14.0733 z"
         style="font-size:medium;font-style:normal;font-variant:normal;font-weight:normal;font-stretch:normal;text-indent:0;text-align:start;text-decoration:none;line-height:normal;letter-spacing:normal;word-spacing:normal;text-transform:none;direction:ltr;block-progression:tb;writing-mode:lr-tb;text-anchor:start;baseline-shift:baseline;color:#000000;fill:#008000;fill-opacity:1;fill-rule:nonzero;stroke:none;stroke-width:4;marker:none;visibility:visible;display:inline;overflow:visible;enable-background:accumulate;font-family:Sans;-inkscape-font-specification:Sans" />
      <path
         sodipodi:nodetypes="cacscacsc"
         inkscape:connector-curvature="0"
         id="path3303"
         d="m 3154.8351,-2149.0637 c 0,0 -6.1891,7.2925 -8.7928,11.2888 -2.8625,4.3936 -7.4472,13.8569 -7.4472,13.8569 0,0 49.8667,-24.0831 67.6065,-30.2972 18.2787,-6.4028 54.803,-21.7873 54.803,-21.7873 0,0 -3.8451,-1.8876 -5.9103,-2.3872 -3.1018,-0.7503 -9.5343,-0.868 -9.5343,-0.868 0,0 -25.7837,-0.1235 -42.8032,6.1343 -17.0196,6.2579 -47.9217,24.0597 -47.9217,24.0597 z"
         style="fill:#ffffff;stroke:#000000;stroke-width:2;stroke-linecap:butt;stroke-linejoin:miter;stroke-miterlimit:4;stroke-opacity:1;stroke-dasharray:none" />
      <path
         style="font-size:medium;font-style:normal;font-variant:normal;font-weight:normal;font-stretch:normal;text-indent:0;text-align:start;text-decoration:none;line-height:normal;letter-spacing:normal;word-spacing:normal;text-transform:none;direction:ltr;block-progression:tb;writing-mode:lr-tb;text-anchor:start;baseline-shift:baseline;color:#000000;fill:#008000;fill-opacity:1;fill-rule:nonzero;stroke:none;stroke-width:4;marker:none;visibility:visible;display:inline;overflow:visible;enable-background:accumulate;font-family:Sans;-inkscape-font-specification:Sans"
         d="m 3433.0379,-2169.2212 24.4739,22.8165 -8.1844,3.1976 -24.3243,-22.4616 z"
         id="path27241"
         inkscape:connector-curvature="0"
         sodipodi:nodetypes="ccccc" />
    </g>
  </g>
</svg>
